<svg xmlns="http://www.w3.org/2000/svg" viewBox="0 0 999 999" width="999" height="999"><defs></defs><g transform="matrix(1,0,0,1,0,0)">
<g>
	<g>
		<g transform="matrix(1.62286888,0,0,1.622882597,300.850321213,-166.371271636)">
			<g>
				<path d="M215.7640655326207,344.2086165328725 C217.40469058151513,343.047158164925 219.08177396482944,341.9013247974432 220.74844068116664,340.77632476391557 C259.34219183135,367.02632554622653 311.8474017294605,363.3544504367961 361.1651115325761,314.03674063368055 C417.4307382094224,257.77111395683426 448.24323912770643,163.43256947865996 409.06615462680503,124.26069331124711 C369.8942784593922,85.08360881034571 275.55052564772933,115.90131806211832 219.3005239713487,172.1565280719875 C169.96718916776746,221.47423787510309 166.31093905880272,273.9898644401907 192.5713565080908,312.58361559037405 C178.89948110063716,333.3388245422608 161.87864726004346,352.1252834354742 144.04010506174683,369.203408944442 C120.45156269208684,391.8023679512768 95.55572861679985,413.1461185873701 71.11301955501705,434.83361923370796 C46.11301880995899,457.03674489541265 20.706768052793734,478.7711205431475 -4.741149372279949,500.43778785553116 C-52.90260914093659,541.4169557434722 -102.08490227334977,581.3179985992825 -152.76198711697788,619.1096663922286 C-157.2099039162028,622.4325831579259 -161.94427905729816,625.5107082496612 -165.96511251046167,629.364875031191 C-170.84532098923654,634.0419585039123 -174.76198777262897,639.6930003389931 -177.39219618434862,645.9169588578148 C-181.82969631659643,656.4690425056248 -182.42344633429155,668.4482095292984 -179.12136290254847,679.401334855727 C-172.22032103021473,702.2815438709437 -149.0744870070818,717.2242526496044 -125.38177796765075,714.1461275578691 C-113.9651109607409,712.6617525136313 -103.22031897385449,707.1409190157643 -95.40261040753529,698.6617520963988 C-91.99115197253258,694.9586269860371 -89.21511022313342,690.6825851919344 -86.20469346674935,686.6617517387709 C-82.06927667683766,681.1044599064841 -77.95990155436874,675.5523764076858 -73.74635976212875,670.0627929107501 C-54.55885919029669,645.0523754987149 -35.064066942639954,620.2971664276189 -15.147399682410366,595.8492490323475 C26.842184902310066,544.3336224970623 70.26926952987134,494.01591266414437 114.37864584443315,444.3127861828758 C125.18593783318221,432.13049415314856 136.09739649170234,420.04716045970383 147.00885515022247,407.95861843277055 C157.6963554687348,396.1044514128222 168.42552245515554,384.33882606217924 180.1234394704473,373.4482007376133 C191.40468980665474,362.9742420921317 203.18594015776335,353.09924179783377 215.7640655326207,344.2086165328725" fill="#fefefe" fill-opacity="0"/>
			</g>
			<g>
				<g>
					<path d="M215.7640655326207,344.2086165328725 C215.7640655326207,344.2086165328725 218.16510727084398,347.60444996740955 218.16510727084398,347.60444996740955 C219.76406565182998,346.46903326690483 221.42031570119008,345.3440332333772 223.08698241752728,344.2086165328725 C223.08698241752728,344.2086165328725 220.74844068116664,340.77632476391557 220.74844068116664,340.77632476391557 C220.74844068116664,340.77632476391557 218.409898944806,344.2086165328725 218.409898944806,344.2086165328725 C234.36302442024618,355.07320018999565 252.74844163484096,361.067992035321 272.2536505494748,361.067992035321 C301.87344309888005,361.067992035321 333.8213607176688,347.27632495763066 364.1130282870975,316.9742407212249 C383.87865387615904,297.1929901316977 400.49323770464554,272.9065310745715 412.21719638738006,247.85965532811645 C423.935946736626,222.7919462477072 430.7953219410513,196.96902881145763 430.810946941517,173.9273614580958 C430.80573860802843,163.54715281540814 429.409905233096,153.71381918901864 426.35261347531497,144.7971522566146 C423.30053005102246,135.89090199118766 418.58177991039275,127.89090175276908 412.0088630478379,121.31798489021423 C405.43594618528306,114.74506802765939 397.44115428035303,110.02110955354112 388.524487347949,106.96902612924862 C379.60782041554495,103.92215103844467 369.78490345613255,102.51590099653515 359.4046948134449,102.51590099653515 C336.36302746008306,102.53673433048937 310.5296933568564,109.38569286793756 285.47240094342425,121.10444321718353 C260.4151085299921,132.82840189991805 236.13385780635446,149.44298572840455 216.36302388380437,169.20861131746608 C186.05052298042148,199.4950705534062 172.26406423621967,231.43777983870643 172.26406423621967,261.06278072160023 C172.26406423621967,280.5731979697226 178.2640644150336,298.9586151843174 189.13906473913386,314.9221573267347 C189.13906473913386,314.9221573267347 192.5713565080908,312.58361559037405 192.5713565080908,312.58361559037405 C192.5713565080908,312.58361559037405 189.09739807122543,310.3023655223875 189.09739807122543,310.3023655223875 C175.66510600424527,330.68778279658693 158.85781383668228,349.26070001676965 141.16510497606515,366.1982005215465 C117.68072927617624,388.68778452512163 92.83177020228624,410.0159101607493 68.36301947306066,431.72424414104137 C43.39426872893392,453.8857031348376 18.008851305722885,475.6044537821068 -7.439066119350798,497.27112109449047 C-55.5484425531219,538.2138306480116 -104.65781901669533,578.0575818354479 -155.24636219101802,615.7711246260657 C-159.54844565256343,618.9950830554804 -164.4390707983154,622.1461248160555 -168.84011259614334,626.3596666082955 C-174.1265710870254,631.4273750926583 -178.36615454670817,637.5419586082204 -181.21511296494708,644.2971671428746 C-184.00157138132334,650.9013340063608 -185.3817797557901,657.9794592173054 -185.3817797557901,665.068001095227 C-185.3817797557901,670.3075845847121 -184.6265713999498,675.5471680741972 -183.10052968780354,680.6044598915829 C-176.22032114942402,703.2971689012116 -154.85052884588794,718.6773776929109 -131.58490315251828,718.7034193603537 C-129.35052808592872,718.7034193603537 -127.10573635236204,718.5575860226742 -124.85573628530682,718.2711276808037 C-124.85573628530682,718.2711276808037 -124.84531961832971,718.2659193473152 -124.84531961832971,718.2659193473152 C-112.45469424906031,716.6461276323749 -100.84531890307397,710.6877941214694 -92.35052698324279,701.4794605137064 C-88.6317768724154,697.4273770596116 -85.78281845417649,693.0211269282951 -82.88177670105205,689.1513351462996 C-82.88177670105205,689.1513351462996 -82.87136003407494,689.1461268128111 -82.87136003407494,689.1461268128111 C-78.7307349106747,683.5836266470357 -74.63177645518289,678.0367514817259 -70.44948466387422,672.5888346526987 C-51.27760909250782,647.6096672415948 -31.808858512293853,622.8857081714301 -11.923441252995588,598.4690407770901 C30.01926833032786,547.0159142436675 73.40989462346926,496.74507941214654 117.47760427012264,447.0732029318093 C128.27968792538314,434.91174423603627 139.18072991692617,422.8336188760801 150.09739690893485,410.7450768491468 C160.76406389349296,398.896118162687 171.42031421107396,387.21903448134947 182.951564554732,376.49507582841727 C194.1234398876798,366.1148671857296 205.76927356808602,356.35445022817987 218.15989893735542,347.60444996740955 C218.15989893735542,347.60444996740955 218.16510727084398,347.60444996740955 218.16510727084398,347.60444996740955 C218.16510727084398,347.60444996740955 215.7640655326207,344.2086165328725 215.7640655326207,344.2086165328725 C215.7640655326207,344.2086165328725 213.36823212788596,340.81278309833544 213.36823212788596,340.81278309833544 C200.6026067474407,349.828408367022 188.67552305865257,359.8336169985338 177.29010605267405,370.4065339802979 C165.42552236574858,381.4482009760319 154.61302204351097,393.31278466295737 143.92552172499865,405.1721600163943 C133.0140630664785,417.2659103768161 122.09739607446983,429.3544524037494 111.26927075176656,441.5523694339423 C67.13385276976197,491.2867459161422 23.670309807780825,541.6461224169685 -18.36614977833659,593.2138322871393 C-38.30885870600895,617.7086246838077 -57.82969262110845,642.4898754223465 -77.05365152736039,667.531542835313 C-81.28281832006604,673.0575846666685 -85.40781844300062,678.630501499421 -89.53802689942376,684.1825849982193 C-89.53802689942376,684.1825849982193 -89.53802689942376,684.1669599977537 -89.53802689942376,684.1669599977537 C-92.6421936586018,688.3440434555738 -95.37136040660397,692.5002935794397 -98.4651104988049,695.8440436790912 C-105.60052737812356,703.5888355765707 -115.47552767242149,708.6669607279106 -125.91823631697179,710.0211274349346 C-127.81927804029391,710.2659191088966 -129.70990309663893,710.3857107791333 -131.58490315251828,710.3857107791333 C-151.16302873599187,710.4117524465761 -169.42344594686136,697.2502937210007 -175.1421961172934,678.1982098198711 C-176.42344615547762,673.9377930262341 -177.06407117456973,669.5055012274748 -177.06407117456973,665.068001095227 C-177.06407117456973,659.0680009164131 -175.88698780615658,653.0784174045763 -173.55886273677305,647.5315422392665 C-171.1526126650612,641.8388337362773 -167.56407089144767,636.6565419151663 -163.09011242478,632.364875120598 C-159.45469564976946,628.8648750162898 -154.87136217984215,625.8648749268829 -150.27761204293773,622.4377914914145 C-99.51198553000421,584.5836236966057 -50.25677572875128,544.6252891724213 -2.048440958697654,503.60445461657184 C23.409893133353137,481.93257897069964 48.83176889098405,460.172161655522 73.87343630395054,437.9482026598631 C98.28489536480203,416.29195201445657 123.21197944102033,394.9117430439434 146.9151051474285,372.2086173673375 C164.89948068340465,354.98465852069023 182.1286478635405,335.9846579544461 196.04531494495615,314.87007399184915 C196.96718997243016,313.4690322834282 196.95677330545305,311.6304905619687 196.00885661053627,310.2450738540134 C186.00885631251305,295.5367400823376 180.58698115092858,278.87007291896555 180.58698115092858,261.06278072160023 C180.58698115092858,234.08361325089174 193.08177318996906,204.2606956954329 222.24323239238157,175.09402815953183 C241.2432329586257,156.07840259282204 264.80052532735436,139.9534021122596 288.99844271517514,128.63048510814372 C313.1755267690417,117.31277643751639 338.01927750944316,110.8231929107784 359.4046948134449,110.83360957775551 C369.0349034337808,110.83360957775551 377.9567786996734,112.1409012833825 385.82657060087814,114.8336096969648 C393.71198750254854,117.54194311101276 400.53490437255397,121.60965156557324 406.1286545392607,127.20340173227999 C411.72240470596745,132.78673523200962 415.79011316052794,139.62006876899216 418.4880299075988,147.49506900368544 C421.1911549881582,155.37006923837873 422.4984466937852,164.29715283775988 422.4880300268081,173.9273614580958 C422.50365502727374,195.31277876209754 416.0192798340243,220.14611283552188 404.69115449641987,244.33361355636555 C393.37344582579254,268.5211142772092 377.24323701174154,292.0784066459379 358.22761144503176,311.0888238791591 C329.0505272421536,340.2450747480831 299.22760968669473,352.7450751206121 272.2536505494748,352.75028345410067 C254.4567750190866,352.7450751206121 237.79010785571455,347.3284082925162 223.08698241752728,337.3388246614701 C221.6755240421292,336.37528296608764 219.82135732020407,336.37528296608764 218.409898944806,337.33361632798153 C216.7432322284688,338.46903302848625 215.05052384468883,339.62007472945663 213.35781546090885,340.81278309833544 C213.35781546090885,340.81278309833544 213.36823212788596,340.81278309833544 213.36823212788596,340.81278309833544 C213.36823212788596,340.81278309833544 215.7640655326207,344.2086165328725 215.7640655326207,344.2086165328725" fill="#000000"/>
				</g>
			</g>
			<g>
				<g>
					<g>
						<g>
							<g>
								<g>
									<g>
										<path d="M-106.48073573768914,676.6982097751676 C-83.15261004245684,653.3648757464467 -81.72552666659311,651.8857090356975 -82.28281834986836,651.5471673589415 C-82.54323502429605,651.3336256859108 -83.83490172945739,650.7815423361241 -85.04844343229041,650.3023756551771 C-86.28802680256621,649.802375640276 -87.31927683329985,649.3544589602603 -87.31927683329985,649.2502922904893 C-87.31927683329985,649.1461256207182 -85.91823512487889,649.5940423007338 -84.23073507458747,650.2242506528488 C-84.23073507458747,650.2242506528488 -81.17344331680641,651.3857090207963 -81.17344331680641,651.3857090207963 C-81.17344331680641,651.3857090207963 -72.70990139790655,642.9221671018964 -72.70990139790655,642.9221671018964 C-72.70990139790655,642.9221671018964 -78.75156824462891,636.8857085886626 -78.75156824462891,636.8857085886626 C-78.75156824462891,636.8857085886626 -84.76198509041996,630.870083409383 -84.76198509041996,630.870083409383 C-84.76198509041996,630.870083409383 -88.58490187101842,634.3232085122942 -88.58490187101842,634.3232085122942 C-90.64219359899715,636.2242502356163 -94.0953187019083,639.6252920036419 -96.20469376477257,641.8388337362773 C-96.20469376477257,641.8388337362773 -100.02761054537103,645.9221671913034 -100.02761054537103,645.9221671913034 C-100.02761054537103,645.9221671913034 -99.37136052581326,644.2086254735692 -99.37136052581326,644.2086254735692 C-98.36615216252238,641.5211253934755 -98.26198549275131,639.7815420082985 -98.97552718068317,635.5888335500127 C-100.1109438811879,628.8127916814043 -101.05886057610468,627.229458300884 -104.35573567435921,626.5159166129521 C-106.62656907536865,626.0419582654937 -116.30365269710154,626.0627915994479 -118.86094443998144,626.5627916143491 C-120.57448615771563,626.9065416245936 -120.6005278251584,626.8804999571508 -119.67865279768438,626.2763332724786 C-117.14740272224725,624.6409165570727 -116.75156937711716,624.1409165421716 -117.12136105480448,623.3492498519114 C-117.32969439434663,622.8232081695675 -117.72552773947672,622.5315414942085 -118.14740275204957,622.4794581593229 C-118.70469443532483,622.4013331569946 -118.60052776555375,622.2398748188494 -117.5692777348201,621.4221664611465 C-116.14740269244493,620.3700830964586 -116.12136102500216,620.0784164210996 -117.38698606272072,620.2919580941303 C-118.0432360822785,620.3700830964586 -117.2776110594611,619.5523747387557 -112.90261092907593,615.3857079479127 C-110.00156917595149,612.6461245329334 -107.31406909585775,610.1669577923818 -106.91823575072766,609.9273744519083 C-106.2046940627958,609.4273744370072 -106.23594406372712,609.4013327695644 -109.24115248662264,606.3961243466689 C-109.24115248662264,606.3961243466689 -112.27240257696093,603.359665922842 -112.27240257696093,603.359665922842 C-112.27240257696093,603.359665922842 -170.8036543213281,661.8909176672092 -170.8036543213281,661.8909176672092 C-170.8036543213281,661.8909176672092 -131.24115314227373,701.4534188462636 -131.24115314227373,701.4534188462636 C-131.24115314227373,701.4534188462636 -106.48073573768914,676.6982097751676 -106.48073573768914,676.6982097751676 ZM-137.62656999924064,674.6617513811431 C-137.33490332388163,674.4221680406696 -136.886986643866,673.974251360654 -136.62656996943832,673.6565430178522 C-136.256778291751,673.1825846703938 -136.38698662896485,673.156543002951 -137.30886165643886,673.5002930131956 C-137.94427834204242,673.7607096876233 -138.31407001972974,673.7607096876233 -138.1265700141418,673.5784180155239 C-137.9703200094852,673.3700846759817 -138.02240334437073,673.156543002951 -138.28802835228697,673.1044596680655 C-139.04844504161582,672.9169596624776 -141.5849034505415,670.6513345949567 -141.31927844262526,670.3857095870404 C-141.18907010541142,670.2555012498266 -141.26719510773972,669.9638345744676 -141.47552844728187,669.7555012349254 C-141.68907012031258,669.5419595618947 -141.95469512822882,669.4377928921236 -142.03282013055713,669.515917894452 C-142.11094513288543,669.5940428967803 -142.63698681522936,669.281542887467 -143.13698683013052,668.7763345390773 C-143.668236845963,668.3023761916189 -144.006778522719,667.8023761767178 -143.90261185294793,667.6982095069467 C-143.77240351573408,667.5627928362443 -143.98073685527623,667.3023761618166 -144.37657020040632,667.0627928213431 C-144.74636187809364,666.854459481801 -145.3817785636972,666.0627927915408 -145.77761190882728,665.2971677687234 C-146.35573692605675,664.1357094007759 -146.35573692605675,663.8180010579741 -145.69948690649898,663.1617510384164 C-145.3036535613689,662.7659176932863 -144.85573688135327,662.5263343528128 -144.74636187809364,662.6357093560724 C-144.64219520832256,662.7398760258435 -144.298445198078,662.6096676886297 -144.03802852365033,662.3440426807134 C-143.74636184829131,662.0523760053544 -143.69427851340578,661.7919593309267 -143.8505285180624,661.7398759960412 C-144.38177853389487,661.6305009927815 -143.79844518317685,661.2086259802087 -143.1161534961763,661.2086259802087 C-142.63698681522936,661.2086259802087 -142.55886181290106,661.1305009778804 -142.8244868208173,660.8127926350786 C-143.00677849291668,660.5784176280937 -143.27240350083292,660.3127926201774 -143.40261183804677,660.2346676178491 C-143.8505285180624,659.8909176076046 -142.37657014080168,657.995084217771 -140.50677841841087,656.4377925046934 C-139.44948672023446,655.5419591446622 -138.5536533602032,654.5940424497454 -138.50157002531768,654.2763341069436 C-138.4755283578749,653.9846674315846 -138.1838616825159,653.2763340771413 -137.86615333971412,652.6930007264233 C-137.3401116573702,651.7450840315065 -137.20990332015634,651.7190423640637 -136.6838616378124,652.1930007115221 C-136.04844495220885,652.7190423938661 -136.04844495220885,652.7190423938661 -136.54844496711002,652.0107090394227 C-136.81406997502626,651.6409173617354 -136.91823664479733,651.2190423491626 -136.7880283075835,651.0836256784602 C-136.65781997036964,650.9534173412463 -136.26198662523956,651.0836256784602 -135.89219494755224,651.3492506863764 C-135.49636160242216,651.6409173617354 -135.1526115921776,651.7190423640637 -135.0744865898493,651.4794590235903 C-135.02240325496376,651.2711256840481 -134.54844490750537,651.3752923538192 -133.99115322423012,651.7190423640637 C-133.4651115418862,652.0367507068655 -132.69948651906878,652.4846673868811 -132.3036531739387,652.6669590589805 C-131.56406981856406,652.9846674017823 -131.56406981856406,652.9846674017823 -132.62136151674048,653.0367507366678 C-133.22552820141271,653.0627924041106 -133.88698655445904,652.9325840668968 -134.06927822655842,652.7450840613088 C-134.65261157727645,652.1669590440794 -134.96511158658967,653.1669590738817 -134.41302823680297,653.7763340920425 C-133.80886155213074,654.3805007767147 -131.751569824152,655.3857091400056 -129.136986412898,656.3075841674796 C-128.05886138076738,656.7034175126097 -126.9755280151482,657.2034175275109 -126.71511134072051,657.4690425354271 C-126.18386132488803,657.995084217771 -125.39219463462786,657.4690425354271 -125.57969464021579,656.7034175126097 C-125.6578196425441,656.4690425056248 -125.47552797044472,655.6513341479218 -125.15781962764294,654.9117507925472 C-124.76198628251285,653.9377924301876 -124.76198628251285,653.6200840873859 -125.1838612950857,653.7242507571569 C-125.50156963788748,653.7763340920425 -126.18386132488803,653.4586257492407 -126.71511134072051,652.9325840668968 C-127.26719469050721,652.4325840519956 -127.76719470540837,652.088834041751 -127.90261137611077,652.2190423789649 C-128.215111385424,652.5367507217667 -129.5901114264022,651.797167366392 -131.48594481623576,650.2711256542458 C-132.67344485162602,649.2919589583977 -133.01719486187056,648.8961256132676 -132.56927818185494,648.9742506155959 C-131.751569824152,649.1617506211838 -132.09531983439655,648.7659172760538 -133.01719486187056,648.4742506006947 C-133.3609448721151,648.3440422634809 -134.2307365647036,647.8440422485797 -134.9182365851927,647.3700839011213 C-136.04844495220885,646.5523755434184 -136.07448661965162,646.4690422076015 -135.2307365945059,646.5784172108612 C-134.49636157261983,646.6825838806323 -134.3869865693602,646.6305005457467 -134.73073657960475,646.2867505355022 C-134.97031992007823,646.0471671950287 -135.02240325496376,645.6252921824558 -134.9182365851927,645.3648755080281 C-134.73073657960475,644.9690421628981 -134.6005282423909,644.9950838303408 -134.41302823680297,645.3909171754709 C-134.20469489726082,645.8648755229293 -134.12656989493252,645.8388338554865 -133.93906988934458,645.2294588373258 C-133.70469488235966,644.3596671447373 -132.54323651441217,643.5732087879657 -132.41302817719833,644.1773754726379 C-132.3609448423128,644.4430004805541 -132.17344483672485,644.2034171400807 -132.043236499511,643.7034171251795 C-131.8296948264803,643.0159171046904 -131.72552815670923,642.9117504349193 -131.64740315438092,643.3075837800494 C-131.54323648460985,643.6773754577367 -131.40781981390745,643.5992504554084 -131.121361472037,643.0419587721332 C-130.5119864538762,641.8596670702315 -128.2724030537981,640.3544586920394 -127.03281968352229,640.3284170245967 C-127.03281968352229,640.3284170245967 -125.92344465046034,640.2763336897111 -125.92344465046034,640.2763336897111 C-125.92344465046034,640.2763336897111 -125.3192779657881,643.7294587926223 -125.3192779657881,643.7294587926223 C-124.68386128018454,647.3180005662358 -124.36615293738276,648.6877922737254 -124.31406960249723,648.0002922532364 C-124.31406960249723,647.5784172406635 -122.89219456012205,647.6357089090376 -122.62656955220581,648.0575839216104 C-122.52240288243473,648.1617505913815 -122.02240286753357,648.2919589285954 -121.41302784937278,648.3180005960381 C-120.86094449958608,648.3440422634809 -120.30886114979938,648.5836256039544 -120.17344447909699,648.8752922793134 C-120.06927780932591,649.1357089537411 -119.56927779442475,649.2711256244435 -119.1474027818519,649.1617506211838 C-118.5380277636911,649.03154228397 -118.01198608134717,649.2971672918862 -117.03802771898762,650.2711256542458 C-116.29844436361299,651.0107090096204 -115.74636101382629,651.7763340324378 -115.8244860161546,652.0107090394227 C-115.87656935104013,652.2242507124535 -115.63698601056666,652.7242507273546 -115.29323600032211,653.0680007375992 C-114.71511098309264,653.6461257548286 -114.61094431332157,653.5940424199431 -114.08490263097764,652.6461257250263 C-113.79323595561863,652.0940423752396 -113.24115260583193,651.4846673570788 -112.94948593047292,651.3023756849794 C-112.44948591557176,651.062792344506 -112.47552758301453,651.0367506770632 -112.97552759791569,651.1148756793915 C-113.52761094770239,651.1930006817198 -113.66302761840478,651.1148756793915 -113.71511095329032,650.432583992391 C-113.84531929050416,649.1409172872296 -115.53281934079558,647.0836255592509 -118.5953194320652,644.6044588186993 C-119.4390694572109,643.9169587982102 -120.09531947676868,643.2034171102783 -120.01719447444037,643.021125438179 C-119.93906947211207,642.6252920930489 -119.19948611673743,642.9950837707362 -117.30365272690386,644.4690421479969 C-115.69427767894075,645.7086255182727 -115.16302766310827,645.9742505261889 -115.03281932589442,645.4742505112878 C-115.00677765845165,645.2867505056998 -114.71511098309264,645.3700838415167 -114.42865264122219,645.6565421833872 C-114.13698596586318,645.8961255238606 -113.98073596120656,646.2138338666624 -114.1109442984204,646.3440422038763 C-114.24115263563425,646.4742505410901 -113.44948594537408,647.3180005662358 -112.34531924580068,648.2711255946411 C-111.10573587552489,649.2971672918862 -110.34011085270748,650.1669589844747 -110.31406918526471,650.5627923296048 C-110.23073584944785,651.0107090096204 -109.9442775075774,651.1982090152084 -109.10052748243169,651.3023756849794 C-108.09531911914081,651.4065423547505 -108.0171941168125,651.3805006873077 -108.33490245961428,650.8023756700783 C-108.51719413171367,650.4065423249482 -108.86094414195821,649.5888339672453 -109.04844414754615,648.9273756141989 C-109.49636082756177,647.5315422392665 -111.97552756811336,643.5732087879657 -113.05886093373255,642.5471670907206 C-113.4807359463054,642.1773754130332 -114.35052763889388,641.6773753981321 -115.03281932589442,641.4638337251014 C-115.72031934638352,641.2555003855592 -116.38177769942985,640.9117503753147 -116.45990270175815,640.7242503697267 C-116.64219437385754,640.3284170245967 -114.0328192960921,640.0940420176117 -113.63698595096201,640.4898753627418 C-113.4807359463054,640.6461253673984 -113.03281926628978,640.6721670348412 -112.63698592115969,640.5940420325129 C-111.50156922065497,640.2502920222684 -109.02240248010338,642.9950837707362 -108.97031914521784,644.6305004861421 C-108.94427747777507,645.3440421740739 -108.75677747218714,645.8961255238606 -108.57448580008776,645.9221671913034 C-108.38698579449982,645.8961255238606 -108.36094412705705,645.7659171866468 -108.54844413264499,645.5784171810589 C-108.75677747218714,645.3700838415167 -108.6265691349733,645.1305005010432 -108.1526107875149,644.8700838266155 C-107.33490242981196,644.4742504814855 -106.59531907443733,642.6252920930489 -107.1734440916668,642.5211254232778 C-107.3869857646975,642.4690420883923 -107.65261077261374,642.0992504107049 -107.75677744238482,641.6773753981321 C-108.12656912007213,640.4638336952991 -111.15781921041042,637.3232086017011 -111.34531921599836,637.9846669547475 C-111.37136088344113,638.2242502952209 -111.60573589042605,638.1409169594041 -111.81927756345675,637.8805002849764 C-112.0276109029989,637.5627919421746 -112.7932359258163,637.1669585970445 -113.53281928119094,636.9534169240138 C-114.48073597610772,636.6930002495861 -114.7984443189095,636.4794585765554 -114.64219431425289,636.1669585672422 C-114.53281931099326,635.901333559326 -114.90261098868058,635.901333559326 -115.4859443393986,636.1669585672422 C-116.0380276891853,636.4013335742271 -116.56406937152923,636.5055002439982 -116.69427770874307,636.3752919067844 C-117.11615272131593,635.9534168942115 -119.19948611673743,636.7711252519144 -119.49115279209644,637.5367502747318 C-119.67865279768438,637.9325836198619 -119.64740279675306,638.1148752919613 -119.46511112465367,637.9325836198619 C-118.99115277719528,637.5107086072891 -115.98594435429976,637.0888335947162 -115.66823601149798,637.4013336040294 C-115.53802767428414,637.5367502747318 -116.14219435895637,637.8805002849764 -117.01198605154485,638.1669586268468 C-119.04323611208082,638.8284169798932 -119.38698612232537,639.1721669901377 -118.32969442414895,639.484666999451 C-117.11615272131593,639.8544586771383 -117.67344440459118,640.0940420176117 -119.51719445953921,639.9846670143521 C-121.60052785496072,639.9065420120238 -122.97031956245036,639.3284169947943 -122.81406955779374,638.6409169743052 C-122.70990288802267,638.3232086315035 -123.10573623315275,638.2971669640607 -123.9234445908557,638.5367503045342 C-124.60573627785624,638.7450836440763 -125.37136130067364,638.8805003147787 -125.63698630858988,638.8232086464046 C-125.94948631790311,638.7190419766335 -125.94948631790311,638.666958641748 -125.66302797603265,638.5888336394197 C-125.37136130067364,638.5107086370914 -125.29323629834533,638.3232086315035 -125.42344463555918,638.1930002942896 C-125.58490297370435,638.036750289633 -125.39740296811641,637.5888336096174 -125.02761129042909,637.2190419319301 C-124.23594460016892,636.4273752416699 -120.86094449958608,634.6877918564929 -120.43906948701323,634.8440418611495 C-120.25677781491385,634.9221668634779 -119.96511113955484,634.791958526264 -119.78281946745545,634.6096668541646 C-119.56927779442475,634.3961251811339 -119.04323611208082,634.2919585113629 -118.5953194320652,634.3700835136912 C-118.1213610846068,634.4742501834622 -117.3557360617894,634.3961251811339 -116.82969437944547,634.2398751764773 C-116.32969436454431,634.1096668392635 -115.88177768452869,634.1357085067062 -115.79844434871183,634.3700835136912 C-115.74636101382629,634.7398751913785 -115.45990267195583,634.6096668541646 -115.03802765938298,634.0263335034466 C-114.92865265612335,633.9221668336755 -114.69427764913843,633.8440418313472 -114.48073597610772,633.8961251662328 C-114.29844430400834,633.9221668336755 -113.2671942732747,633.7919584964617 -112.2411525760296,633.5523751559882 C-111.20990254529596,633.3180001490033 -110.0796941782798,633.2919584815605 -109.76198583547801,633.4482084862171 C-109.44427749267624,633.6096668243623 -108.86615247544677,633.7659168290189 -108.49636079775945,633.8180001639045 C-107.73073577494205,633.8961251662328 -107.28281909492642,634.1877918415918 -104.95990235903145,636.1409168997994 C-103.38177731199966,637.5107086072891 -103.11615230408341,637.8805002849764 -103.03802730175511,638.91175031571 C-103.01198563431234,639.5680003352678 -102.85052729616717,640.2034170208714 -102.72031895895333,640.3336253580852 C-102.61615228918225,640.4377920278563 -102.7463606263961,640.7815420381008 -103.03802730175511,641.0732087134598 C-103.32448564362556,641.3596670553303 -103.4338606468852,641.7294587330176 -103.27240230874003,641.8909170711628 C-102.7463606263961,642.4169587535067 -102.98073563338102,645.6096671819902 -103.72031898875565,647.8232089146255 C-104.11615233388574,649.0107089500158 -104.43386067668752,650.536750662162 -104.43386067668752,651.2242506826511 C-104.43386067668752,651.9117507031402 -104.59011068134413,652.6461257250263 -104.77240235344351,652.8336257306142 C-104.98594402647421,653.0419590701564 -105.03802736135975,653.3075840780726 -104.93386069158868,653.4117507478437 C-104.79844402088628,653.5419590850576 -105.09011069624529,654.0471674334473 -105.51198570881814,654.5211257809057 C-106.45990240373493,655.521125810708 -109.2567774870883,659.7919592713221 -109.808860836875,661.0836259764834 C-109.99115250897438,661.531542656499 -109.99115250897438,662.0627926723315 -109.808860836875,662.2450843444309 C-109.54323582895876,662.5107093523471 -109.91302750664607,663.0888343695766 -111.15261087692187,664.3284177398524 C-112.70990258999944,665.9377927878155 -112.89219426209883,666.0159177901438 -113.41823594444276,665.5419594426854 C-113.8974026253897,665.1200844301126 -113.94948596027524,665.1200844301126 -113.70990261980177,665.5680011101282 C-113.31406927467168,666.224251129686 -113.31406927467168,666.224251129686 -114.07969429748908,666.5680011399305 C-114.57969431239025,666.807584480404 -114.65781931471855,666.7294594780757 -114.68906931564987,665.9117511203727 C-114.76719431797818,665.406542771983 -114.63177764727578,664.9586260919674 -114.42344430773363,664.9065427570819 C-113.8974026253897,664.8023760873108 -114.47552764261917,664.3284177398524 -115.87136101755158,663.7711260565771 C-117.0849027203846,663.2450843742332 -119.7776111339669,660.4482092908798 -119.40781945627958,660.0784176131925 C-119.0901111134778,659.7659176038793 -121.38698618193001,658.1565425559162 -122.25677787451849,658.0784175535879 C-123.04844456477866,658.0211258852138 -124.47031960715384,658.6565425708174 -124.10052792946652,658.9221675787336 C-123.99636125969545,658.9742509136191 -123.78281958666474,659.2867509229324 -123.6526112494509,659.5784175982914 C-121.96511119915948,663.0055010337597 -120.48594448841021,665.3805011045403 -120.22552781398252,665.114876096624 C-120.12136114421145,665.0107094268529 -119.53802779349343,665.4325844394258 -118.98594444370673,666.0940427924721 C-118.37656942554594,666.7502928120299 -118.11615275111825,666.9117511501751 -118.4026110929887,666.4638344701594 C-118.72031943579049,666.0419594575866 -118.93386110882119,665.4586261068686 -118.95990277626396,665.1721677649981 C-118.95990277626396,664.9065427570819 -119.16823611580611,664.484667744509 -119.43386112372235,664.2190427365928 C-119.6994861316386,663.9586260621651 -119.7776111339669,663.6148760519205 -119.61615279582173,663.4586260472639 C-119.40781945627958,663.2450843742332 -118.90781944137842,663.6409177193633 -118.09011108367548,664.6148760817229 C-116.90261104828522,666.0680011250294 -116.68906937525452,667.1200844897172 -117.58490273528577,667.3857094976335 C-117.82448607575924,667.4117511650762 -117.85052774320201,667.4898761674045 -117.61094440272853,667.5159178348473 C-117.40261106318638,667.5159178348473 -117.21511105759845,667.8596678450918 -117.21511105759845,668.2815428576647 C-117.24636105852977,668.8336262074514 -117.61094440272853,669.3127928883983 -118.61615276601941,670.0471679102844 C-120.14219447816566,671.2086262782319 -125.81406964720071,678.4586264942988 -124.80886128390983,677.9846681468404 C-124.17865293179483,677.6669598040386 -123.86094458899305,678.0888348166114 -124.17865293179483,678.7763348371005 C-124.30886126900867,679.0680015124595 -124.46511127366529,679.1721681822306 -124.51719460855082,678.9586265091999 C-124.57448627692492,678.7502931696578 -125.20469462903992,679.015918177574 -125.89219464952902,679.5419598599179 C-127.34011135934696,680.6200848920486 -129.79323643245579,680.9117515674076 -131.4807364827472,680.2242515469185 C-132.85052819023684,679.646126529689 -133.14219486559585,679.4065431892155 -133.011986528382,678.8544598394288 C-132.95990319349647,678.5367514966271 -133.22031986792416,678.3284181570849 -133.85573655352772,678.1669598189397 C-134.59531990890235,678.0107098142831 -134.67344491123066,677.9325848119548 -134.19948656377227,677.8232098086952 C-133.75156988375664,677.6930014714814 -133.7776115511994,677.6669598040386 -134.40781990331442,677.614876469153 C-135.06927825636075,677.5367514668247 -135.14740325868905,677.4013347961223 -134.99115325403244,676.7711264440073 C-134.85573658333004,676.2711264291062 -134.90781991821558,676.1617514258465 -135.17344492613182,676.3752930988773 C-135.3557365982312,676.5575847709766 -135.62136160614745,676.5055014360911 -135.7828199442926,676.1877930932893 C-135.8869866140637,675.8752930839761 -136.20469495686547,675.7138347458309 -136.46511163129315,675.7659180807165 C-136.75677830665217,675.8440430830448 -136.86094497642324,675.6877930783882 -136.78281997409493,675.2919597332581 C-136.6526116368811,674.8440430532424 -136.75677830665217,674.7919597183569 -137.2828199889961,675.0002930578991 C-138.07448667925627,675.3700847355864 -138.28802835228697,675.1617513960442 -137.62656999924064,674.6617513811431 C-137.62656999924064,674.6617513811431 -137.62656999924064,674.6617513811431 -137.62656999924064,674.6617513811431 ZM-113.44427761188552,671.6825846256903 C-113.70990261980177,670.8961262689187 -113.02240259931267,668.6773762027948 -112.49636091696874,668.6773762027948 C-112.39219424719766,668.6773762027948 -112.3661525797549,669.23466788607 -112.4442775820832,669.9430012405134 C-112.54844425185428,670.6305012610025 -112.49636091696874,671.1044596084608 -112.3661525797549,670.974251271247 C-112.2307359090525,670.8388346005446 -112.15261090672419,671.0784179410181 -112.20469424160973,671.5002929535909 C-112.31406924486936,672.2398763089656 -112.2307359090525,672.4742513159505 -111.70469422670857,673.005501331783 C-111.57448588949472,673.1357096689968 -111.6005275569375,673.3180013410962 -111.78281922903687,673.344043008539 C-112.28281924393804,673.4794596792414 -113.10052760164098,672.6617513215384 -113.44427761188552,671.6825846256903 C-113.44427761188552,671.6825846256903 -113.44427761188552,671.6825846256903 -113.44427761188552,671.6825846256903 ZM-141.27240344122828,640.9586253767117 C-140.92865343098373,640.7763337046123 -141.0901117691289,641.03675037904 -141.59011178403006,641.5367503939411 C-142.09011179893122,642.0419587423308 -142.35573680684746,642.1982087469875 -142.1942784687023,641.8805004041857 C-141.98594512916014,641.5627920613839 -141.5640701165873,641.140917048811 -141.27240344122828,640.9586253767117 C-141.27240344122828,640.9586253767117 -141.27240344122828,640.9586253767117 -141.27240344122828,640.9586253767117 ZM-136.02240328476609,647.3127922327473 C-135.86615328010947,647.3127922327473 -135.60052827219323,647.526333905778 -135.49636160242216,647.7919589136942 C-135.3661532652083,648.0784172555647 -135.52240326986492,648.0784172555647 -135.81406994522393,647.7867505802056 C-136.12656995453716,647.526333905778 -136.20990329035402,647.2867505653045 -136.02240328476609,647.3127922327473 C-136.02240328476609,647.3127922327473 -136.02240328476609,647.3127922327473 -136.02240328476609,647.3127922327473 ZM-110.09531917874546,670.3388345856434 C-109.56927749640153,668.9169595432683 -109.5953191638443,668.7867512060544 -110.25677751689062,669.1252928828104 C-110.67865252946348,669.3388345558411 -111.10052754203633,669.3388345558411 -111.2046942118074,669.1252928828104 C-111.44427755228088,668.6773762027948 -110.5744858596924,665.698209447342 -110.04323584385992,665.1200844301126 C-109.86094417176054,664.8805010896391 -109.01719414661483,663.6669593868061 -108.19948578891189,662.3752926816447 C-107.35573576376618,661.0575843090406 -106.51198573862047,659.9534176094672 -106.27761073163555,659.9273759420245 C-106.06406905860484,659.8752926071389 -105.56406904370368,660.1617509490094 -105.14219403113083,660.5836259615822 C-104.08490233295441,661.6409176597587 -104.37656900831342,662.7190426918893 -106.72031907816262,666.7034178106329 C-109.86094417176054,672.0523763033776 -111.41302755134956,673.7138346862263 -110.09531917874546,670.3388345856434 C-110.09531917874546,670.3388345856434 -110.09531917874546,670.3388345856434 -110.09531917874546,670.3388345856434 ZM-129.79844476594434,652.2711257138504 C-129.7463614310588,652.0627923743083 -129.56406975895942,651.98466737198 -129.42865308825702,652.1148757091938 C-129.2724030836004,652.2711257138504 -129.2724030836004,652.5367507217667 -129.40261142081425,652.6669590589805 C-129.56406975895942,652.8284173971257 -129.72031976361603,652.8805007320112 -129.77240309850157,652.8284173971257 C-129.85052810082988,652.7502923947974 -129.87656976827265,652.5107090543239 -129.79844476594434,652.2711257138504 C-129.79844476594434,652.2711257138504 -129.79844476594434,652.2711257138504 -129.79844476594434,652.2711257138504 ZM-139.5588617234941,640.1409170190087 C-138.871361703005,639.4534169985196 -138.07969501274482,638.9794586510612 -137.57969499784366,639.005500318504 C-137.13177831782804,638.9794586510612 -136.73594497269795,639.005500318504 -136.70990330525518,639.0367503194353 C-136.57969496804134,639.1669586566492 -139.05886170859293,641.2763337195134 -139.74115339559347,641.6461253972008 C-140.9546950984265,642.2763337493158 -140.85052842865542,641.4325837241701 -139.5588617234941,640.1409170190087 C-139.5588617234941,640.1409170190087 -139.5588617234941,640.1409170190087 -139.5588617234941,640.1409170190087 ZM-137.18386165271357,637.7711252817168 C-136.76198664014072,637.7138336133427 -136.4494866308275,637.8232086166023 -136.4494866308275,637.9794586212589 C-136.42344496338472,638.1096669584728 -136.76198664014072,638.2450836291752 -137.18386165271357,638.2971669640607 C-137.60573666528643,638.3492502989462 -137.9234450080882,638.2450836291752 -137.9234450080882,638.08362529103 C-137.94948667553098,637.9534169538161 -137.60573666528643,637.8232086166023 -137.18386165271357,637.7711252817168 C-137.18386165271357,637.7711252817168 -137.18386165271357,637.7711252817168 -137.18386165271357,637.7711252817168 ZM-135.23594492799447,637.2919586007698 C-135.28802826288,636.9794585914566 -135.0744865898493,636.7659169184259 -134.54844490750537,636.6617502486548 C-133.94427822283313,636.4794585765554 -133.91823655539037,636.8180002533114 -134.5224032400626,637.161750263556 C-134.54844490750537,637.1877919309987 -134.78802824797884,637.6357086110144 -134.996361587521,638.1669586268468 C-135.26198659543724,638.6930003091908 -135.60573660568178,639.1409169892064 -135.81406994522393,639.1409169892064 C-136.02761161825464,639.1409169892064 -135.94427828243778,638.7971669789619 -135.65781994056732,638.4013336338318 C-135.3661532652083,638.0575836235872 -135.18386159310893,637.5055002738005 -135.23594492799447,637.2919586007698 C-135.23594492799447,637.2919586007698 -135.23594492799447,637.2919586007698 -135.23594492799447,637.2919586007698 ZM-109.23073581964553,661.1357093113689 C-108.93906914428652,661.0055009741551 -108.93906914428652,661.1617509788117 -109.23073581964553,661.4534176541707 C-109.49115249407322,661.7711259969725 -109.73073583454669,661.8492509993008 -109.70469416710392,661.6669593272014 C-109.70469416710392,661.5055009890563 -109.49115249407322,661.2450843146286 -109.23073581964553,661.1357093113689 C-109.23073581964553,661.1357093113689 -109.23073581964553,661.1357093113689 -109.23073581964553,661.1357093113689 ZM-124.39740293831409,643.2815421126066 C-124.37136127087132,641.8857087376742 -124.26198626761169,640.6721670348412 -124.15781959784061,640.5680003650701 C-124.05365292806954,640.4586253618105 -123.55365291316838,640.3284170245967 -123.04844456477866,640.2502920222684 C-122.28802787544981,640.17216701994 -122.26198620800704,640.1982086873828 -122.78802789035097,640.4586253618105 C-123.26198623780937,640.6721670348412 -123.26198623780937,640.8805003743834 -122.84011122523651,641.3075837204448 C-122.52240288243473,641.620083729758 -122.41823621266366,641.9898754074453 -122.57448621732027,642.1513337455905 C-122.78802789035097,642.3596670851326 -122.6838612205799,642.4638337549037 -122.20469453963295,642.5159170897892 C-121.67865285728902,642.5732087581633 -121.57448618751795,642.6773754279344 -121.73073619217456,643.0471671056217 C-121.83490286194564,643.3075837800494 -121.62656952240349,643.2555004451639 -121.25677784471617,642.8857087674766 C-120.73073616237224,642.4117504200182 -120.6005278251584,642.3857087525754 -120.70469449492947,642.9117504349193 C-120.80886116470055,643.2815421126066 -121.07448617261679,643.5471671205229 -121.41302784937278,643.5732087879657 C-122.02240286753357,643.651333790294 -122.62656955220581,644.6825838210276 -122.25677787451849,645.0471671652264 C-122.12656953730465,645.1825838359288 -122.52240288243473,645.786750520601 -123.1005278996642,646.370083871319 C-124.10573626295508,647.3700839011213 -124.20990293272615,647.3700839011213 -124.34011126994,646.6565422131895 C-124.36615293738276,646.2086255331739 -124.39740293831409,644.7086254884704 -124.39740293831409,643.2815421126066 C-124.39740293831409,643.2815421126066 -124.39740293831409,643.2815421126066 -124.39740293831409,643.2815421126066 ZM-113.9546942937638,644.3388338107831 C-115.61615267661244,642.9950837707362 -116.0380276891853,642.4690420883923 -115.8244860161546,642.2555004153616 C-115.66823601149798,642.0992504107049 -115.48073600591005,642.0732087432622 -115.37656933613897,642.1773754130332 C-115.24636099892513,642.3075837502471 -114.98073599100888,642.4117504200182 -114.74636098402397,642.495083755835 C-114.05886096353487,642.6513337604916 -111.73594422763989,645.0263338312722 -111.97552756811336,645.2607088382571 C-112.10573590532721,645.3961255089595 -111.92344423322783,645.6825838508299 -111.55365255554051,645.8961255238606 C-111.18386087785319,646.1044588634028 -110.99636087226526,646.3961255387618 -111.15781921041042,646.557583876907 C-111.50156922065497,646.896125553663 -112.68386092255668,646.1305005308456 -113.2671942732747,645.2346671708143 C-113.50156928025962,644.8909171605698 -113.8192776230614,644.4690421479969 -113.9546942937638,644.3388338107831 C-113.9546942937638,644.3388338107831 -113.9546942937638,644.3388338107831 -113.9546942937638,644.3388338107831 Z" fill="#000000"/>
									</g>
								</g>
							</g>
						</g>
					</g>
				</g>
			</g>
			<g>
				<g>
					<g>
						<g>
							<g>
								<g>
									<g>
										<path d="M-122.62656955220581,650.6409173319331 C-122.49636121499196,650.5107089947193 -122.84011122523651,650.0055006463296 -123.3140695726949,649.4794589639856 C-123.89219458992437,648.9013339467562 -124.20990293272615,648.739875608611 -124.13177793039785,649.0836256188555 C-123.97031959225268,649.7711256393446 -122.86615289267928,650.875292338918 -122.62656955220581,650.6409173319331 C-122.62656955220581,650.6409173319331 -122.62656955220581,650.6409173319331 -122.62656955220581,650.6409173319331 Z" fill="#000000"/>
									</g>
								</g>
							</g>
						</g>
					</g>
				</g>
			</g>
			<g>
				<g>
					<g>
						<g>
							<g>
								<g>
									<g>
										<path d="M-116.27240269617022,655.4117508074484 C-115.50677767335281,655.33362580512 -115.50677767335281,655.2815424702345 -116.27240269617022,655.2034174679062 C-116.69427770874307,655.1513341330207 -117.11615272131593,655.1513341330207 -117.16823605620147,655.2034174679062 C-117.37656939574362,655.4117508074484 -117.03802771898762,655.4950841432652 -116.27240269617022,655.4117508074484 C-116.27240269617022,655.4117508074484 -116.27240269617022,655.4117508074484 -116.27240269617022,655.4117508074484 Z" fill="#000000"/>
									</g>
								</g>
							</g>
						</g>
					</g>
				</g>
			</g>
			<g>
				<g>
					<g>
						<g>
							<g>
								<g>
									<g>
										<path d="M-113.55365261514515,655.33362580512 C-111.97031923462481,655.3909174734941 -107.59531910423965,654.599250783234 -107.19948575910956,654.2034174381039 C-106.72552741165117,653.7294590906455 -107.54323576935411,653.5940424199431 -109.57448582989008,653.781542425531 C-110.7880275327231,653.8857090953021 -111.8140692299682,654.1252924357756 -111.84011089741097,654.3596674427605 C-111.8921942322965,654.5732091157912 -112.07969423788444,654.703417453005 -112.26198590998382,654.6252924506767 C-112.63177758767114,654.4638341125316 -115.50677767335281,654.9638341274327 -115.31927766776488,655.1513341330207 C-115.2151109979938,655.2555008027917 -114.4494859751764,655.33362580512 -113.55365261514515,655.33362580512 C-113.55365261514515,655.33362580512 -113.55365261514515,655.33362580512 -113.55365261514515,655.33362580512 Z" fill="#000000"/>
									</g>
								</g>
							</g>
						</g>
					</g>
				</g>
			</g>
			<g>
				<g>
					<g>
						<g>
							<g>
								<g>
									<g>
										<path d="M-109.52240249500454,644.6044588186993 C-109.49636082756177,643.943000465653 -109.67865249966115,643.3388337809807 -109.89219417269186,643.2346671112097 C-110.10052751223401,643.12529210795 -110.10052751223401,643.6565421237825 -109.89219417269186,644.3909171456686 C-109.89219417269186,644.3909171456686 -109.52240249500454,645.7138338517613 -109.52240249500454,645.7138338517613 C-109.52240249500454,645.7138338517613 -109.52240249500454,644.6044588186993 -109.52240249500454,644.6044588186993 Z" fill="#000000"/>
									</g>
								</g>
							</g>
						</g>
					</g>
				</g>
			</g>
			<g>
				<g>
					<g>
						<g>
							<g>
								<g>
									<g>
										<path d="M-107.40781909865171,667.0732094883202 C-107.1161524232927,666.7815428129612 -106.45990240373493,664.5419594128831 -106.61615240839154,664.3805010747379 C-106.66823574327708,664.3284177398524 -106.93386075119332,664.8544594221963 -107.1734440916668,665.5680011101282 C-107.62136077168242,667.0211261534347 -107.69948577401072,667.3596678301907 -107.40781909865171,667.0732094883202 C-107.40781909865171,667.0732094883202 -107.40781909865171,667.0732094883202 -107.40781909865171,667.0732094883202 Z" fill="#000000"/>
									</g>
								</g>
							</g>
						</g>
					</g>
				</g>
			</g>
			<g>
				<g>
					<g>
						<g>
							<g>
								<g>
									<g>
										<path d="M-94.88698539216847,640.2555003557569 C-94.67865205262632,640.0471670162148 -94.41302704471008,639.5680003352678 -94.33490204238177,639.2294586585118 C-94.17865203772516,638.4377919682516 -94.60052705029801,638.8596669808245 -94.99115206193954,639.8857086780696 C-95.17865206752748,640.3857086929708 -95.15261040008471,640.5211253636731 -94.88698539216847,640.2555003557569 C-94.88698539216847,640.2555003557569 -94.88698539216847,640.2555003557569 -94.88698539216847,640.2555003557569 Z" fill="#000000"/>
									</g>
								</g>
							</g>
						</g>
					</g>
				</g>
			</g>
			<g>
				<g>
					<g>
						<g>
							<g>
								<g>
									<g>
										<path d="M-103.03802730175511,626.3023749399214 C-102.66823562406779,626.3596666082955 -101.79844393147931,627.0679999627388 -101.05886057610468,627.859666652999 C-98.8713605109121,630.2086250563367 -95.84011042057381,630.3388333935505 -91.22552694971517,628.2607083316176 C-90.32969358968393,627.8388333190447 -90.32969358968393,627.8388333190447 -92.06927697486088,627.7294583157851 C-93.04323533722044,627.6513333134568 -93.99636036562578,627.4429999739147 -94.20469370516793,627.229458300884 C-94.75677705495463,626.6773749510972 -94.54844371541247,624.2502915454312 -93.88698536236615,623.2190415146976 C-93.52240201816738,622.6409164974681 -93.49636035072461,622.1409164825669 -93.80886036003784,621.8232081397651 C-94.20469370516793,621.427374794635 -94.47031871308417,621.5888331327802 -95.57969374614612,622.7971665021247 C-97.34531879876585,624.7763332277751 -97.34531879876585,624.7242498928896 -96.76198544804782,624.8804998975462 C-96.50156877362014,624.9325832324317 -96.47552710617737,625.0159165682486 -96.70990211316229,625.0940415705769 C-96.97552712107853,625.1461249054624 -97.13177712573514,625.5159165831498 -97.10573545829237,625.9117499282798 C-97.0796937908496,626.3075832734099 -97.20990212806345,626.8075832883111 -97.42344380109415,627.0159166278532 C-97.74115214389593,627.333624970655 -97.81927714622424,627.2554999683267 -97.81927714622424,626.5679999478376 C-97.81927714622424,625.5159165831498 -97.89740214855254,625.4377915808215 -98.34531882856817,626.1461249352648 C-98.61094383648441,626.6200832827232 -98.84531884346933,626.5419582803949 -99.82448553931744,625.5159165831498 C-100.66823556446315,624.672166558004 -101.32448558402092,624.276333212874 -102.09011060683832,624.2502915454312 C-103.11615230408341,624.2190415444999 -103.1734439724575,624.1669582096143 -103.12136063757197,623.3232081844686 C-103.12136063757197,622.7971665021247 -103.03802730175511,622.6148748300253 -102.9599022994268,622.8492498370102 C-102.77761062732742,623.458624855171 -100.69427723190591,623.3232081844686 -100.24636055189029,622.7190414997964 C-100.00677721141682,622.3752914895518 -99.7724022044319,622.4013331569946 -99.53281886395843,622.7450831672392 C-99.05886051650003,623.5888331923849 -97.97552715088085,623.6669581947132 -97.92344381599531,622.875291504453 C-97.89740214855254,622.4846664928115 -97.60573547319353,622.1929998174525 -97.24115212899477,622.0888331476814 C-96.87136045130745,621.9794581444218 -96.60573544339121,621.7190414699941 -96.57969377594844,621.323208124864 C-96.5276104410629,620.8492497774056 -96.39740210384906,620.8232081099628 -96.05365209360451,621.1617497867188 C-95.6838604159172,621.5315414644061 -95.57969374614612,621.4794581295206 -95.52240207777203,620.9013331122911 C-95.49636041032926,620.4534164322755 -95.89219375545935,619.7398747443436 -96.57969377594844,619.0523747238545 C-97.66302714156762,617.9742496917239 -97.79323547878147,617.9482080242811 -98.95469384672896,618.5263330415106 C-99.61094386628673,618.8700830517552 -100.22031888444752,619.3179997317708 -100.27240221933306,619.5784164061985 C-100.3244855542186,619.7919580792292 -100.45469389143244,619.7659164117864 -100.61615222957761,619.4482080689846 C-100.74636056679145,619.1565413936256 -101.19427724680708,619.0263330564118 -101.69427726170824,619.1565413936256 C-102.16823560916663,619.3179997317708 -102.98594396686957,619.3440413992136 -103.56927731758759,619.2398747294425 C-104.51719401250438,619.0263330564118 -104.67344401716099,618.8700830517552 -105.1786523655507,617.5784163465938 C-105.49115237486393,616.8388329912192 -105.83490238510848,616.1773746381729 -105.9442773883681,616.1773746381729 C-106.2828190651241,616.2034163056156 -104.22552733714537,625.6982082552491 -103.77761065712974,626.0940416003792 C-103.7255273222442,626.1461249352648 -103.38177731199966,626.2242499375931 -103.03802730175511,626.3023749399214 C-103.03802730175511,626.3023749399214 -103.03802730175511,626.3023749399214 -103.03802730175511,626.3023749399214 Z" fill="#000000"/>
									</g>
								</g>
							</g>
						</g>
					</g>
				</g>
			</g>
			<g>
				<g>
					<g>
						<g>
							<path d="M-73.05844816178859,616.5022211210086 C-74.49074050692377,617.9345134661437 -76.01157356769002,618.8928465101462 -77.62094829776169,619.3772212066903 C-79.21990699663914,619.8511798720401 -80.81886573525303,619.8563878876372 -82.41261510723115,619.3980545406445 C-84.0063645189457,618.9397211936517 -85.50636456364919,618.012638468472 -86.9126152413416,616.6063877907796 C-88.31365631397966,615.2053467181415 -89.2563646754079,613.7209716739037 -89.74594865911484,612.1480543245776 C-90.245948674016,610.5647209440573 -90.27719931073023,608.9970125640026 -89.85011532888592,607.439720850925 C-89.41782301355306,605.8876387429018 -88.52719925857616,604.4345124280295 -87.1834485827464,603.0855540544941 C-86.12615656667853,602.0334706898062 -84.9855324863596,601.2834706674545 -83.76678181425513,600.8355539874389 C-82.54282312655354,600.3928456409118 -81.30844840765775,600.2522206367208 -80.05844837040485,600.4188873083546 C-78.79803103039194,600.5751373130112 -77.61053226656747,601.0647206609352 -76.49594826423407,601.8980540191038 C-76.49594826423407,601.8980540191038 -78.6001149936098,605.4188874573662 -78.6001149936098,605.4188874573662 C-79.63136438856054,604.7261791033885 -80.66261505507708,604.3980540936096 -81.70428175278784,604.4397207615181 C-82.7563644816928,604.4709720340152 -83.70428181239248,604.8980541085108 -84.53761517056108,605.7313874666794 C-85.62094853618026,606.8147208322986 -86.10011521712721,608.0595125360629 -85.97511521340192,609.4605542444839 C-85.85011520967663,610.8668030148276 -85.13136455247331,612.2209722649832 -83.82928181611777,613.5230543655558 C-82.53761511095644,614.7886800390572 -81.15219840300114,615.4553467255921 -79.68344835922898,615.5230544251605 C-78.21469767967392,615.5959717297831 -76.88136430660415,615.0334704414536 -75.68344824001969,613.835554374869 C-74.69907384646592,612.8511793455324 -74.1730308925562,611.720972250082 -74.10011485949934,610.439720940332 C-74.03240715993104,609.1636792356363 -74.42303090000678,607.9345125323376 -75.26678156093539,606.7522208304359 C-75.26678156093539,606.7522208304359 -71.99594813012362,604.2730540898843 -71.99594813012362,604.2730540898843 C-71.01157373656986,605.5386791276029 -70.39178141564906,606.8876387727041 -70.14178140819848,608.3147208770021 C-69.8917814007479,609.7470125863543 -70.01157307098464,611.163679295241 -70.49594808542014,612.5647210036619 C-70.98553206912709,613.9709716813543 -71.83969748968411,615.2834704489042 -73.05844816178859,616.5022211210086 C-73.05844816178859,616.5022211210086 -73.05844816178859,616.5022211210086 -73.05844816178859,616.5022211210086 Z" fill="#000000"/>
						</g>
					</g>
				</g>
			</g>
			<g>
				<g>
					<g>
						<g>
							<path d="M-62.71755167827786,605.786339885111 C-63.67588504017175,606.7446732470049 -64.7123437222854,607.2967572325745 -65.8217184374559,607.432173267494 C-66.9310931526264,607.5727985895765 -67.87380119616319,607.255090564666 -68.65505185522915,606.4738399056001 C-69.44671854548932,605.68217321534 -69.76963585756255,604.6717571543434 -69.63421855107725,603.4321731482847 C-69.49359322899485,602.1977987472803 -68.80609320850576,600.8227987063021 -67.57171848960996,599.3071730253502 C-67.57171848960996,599.3071730253502 -65.98838510908962,597.3071729657455 -65.98838510908962,597.3071729657455 C-65.79567708790458,597.0571729582949 -65.6915104181335,596.8071729508443 -65.6758850997764,596.5571729433938 C-65.66546779701639,596.3071729359432 -65.74880113283325,596.0936312629125 -65.92588510722697,595.9113395908131 C-66.33213444381484,595.5102979121945 -66.8060931290329,595.3488395740493 -67.36338515006781,595.4321729098662 C-67.93109318242873,595.5050908502717 -68.4571345468812,595.7811312535993 -68.94671853058816,596.2655062680348 C-69.49880124459196,596.82279795131 -69.78525990435386,597.453006303425 -69.80088522271097,598.1613396578683 C-69.81130252547098,598.8696730123116 -69.61338521712304,599.4738396969839 -69.19671853803874,599.973839711885 C-69.19671853803874,599.973839711885 -72.321718631171,602.2238397789403 -72.321718631171,602.2238397789403 C-72.88942634564046,601.5467570612111 -73.2227596889079,600.7602987044395 -73.32171866097332,599.869673042114 C-73.43109302845005,598.968631984377 -73.2904680242591,598.036339654143 -72.90505198188902,597.0780062922491 C-72.51442633446459,596.1196729303553 -71.88942663372958,595.2134241749127 -71.03005192600966,594.348839544247 C-69.65505188503147,592.9738395032688 -68.22796914495063,592.2186311474285 -66.75921846539558,592.0780061432375 C-65.29046778584052,591.9425882009693 -63.96755171553076,592.4530061544134 -62.80088501409472,593.6196728558494 C-62.80088501409472,593.6196728558494 -59.238384907923944,597.1821729620202 -59.238384907923944,597.1821729620202 C-58.79567719717977,597.6300909136016 -58.4206771860039,597.697797977387 -58.11338487439633,597.3905063015624 C-57.85296883575154,597.1300908987005 -57.74880089441467,596.7446729489817 -57.800884865083106,596.2446729340805 C-57.800884865083106,596.2446729340805 -55.696718135707385,597.0571729582949 -55.696718135707385,597.0571729582949 C-55.696718135707385,597.6144646415702 -55.84255147338689,598.1821729918225 -56.1342181487459,598.7655063425406 C-56.42588482410491,599.3488396932586 -56.79046753252078,599.859255739354 -57.217551514365084,600.2863397211983 C-57.759218197174675,600.8280064040079 -58.38421821580113,601.1561320495696 -59.09255157024444,601.2655064170464 C-59.790467621927746,601.3644653891117 -60.379010577700114,601.2238397491379 -60.86338495635272,600.8488397379621 C-60.86338495635272,600.8488397379621 -61.19671829962016,600.557173062603 -61.19671829962016,600.557173062603 C-61.19671829962016,600.557173062603 -61.23838496752859,600.5988397305115 -61.23838496752859,600.5988397305115 C-60.9779689288838,601.4477987249286 -60.962343928418136,602.3280064487113 -61.19671829962016,603.2446731426968 C-61.43630227587653,604.1613398366823 -61.941510306374795,605.010298513208 -62.71755167827786,605.786339885111 C-62.71755167827786,605.786339885111 -62.71755167827786,605.786339885111 -62.71755167827786,605.786339885111 ZM-63.571718370400674,602.8488397975667 C-62.9206770022229,602.1977987472803 -62.58734365895546,601.4634237253943 -62.57171834059835,600.6405063984199 C-62.54567699104703,599.8071730402513 -62.84255168200315,599.0780063518538 -63.4675517006296,598.4530063332273 C-63.4675517006296,598.4530063332273 -63.84255171180547,598.0780063220515 -63.84255171180547,598.0780063220515 C-63.84255171180547,598.0780063220515 -65.44671842628003,600.0571730477019 -65.44671842628003,600.0571730477019 C-66.12901043117202,600.906132042119 -66.50401018902814,601.5936320626081 -66.57171845980764,602.1196731091692 C-66.63942673058715,602.6509224892188 -66.52484352298235,603.0675891683031 -66.21755178258599,603.3696731464221 C-65.91546776473054,603.6769654580296 -65.50921842814267,603.7811318099093 -65.00921841324151,603.6821731557353 C-64.50921839834035,603.5884237887242 -64.0300517173934,603.3071731445594 -63.571718370400674,602.8488397975667 C-63.571718370400674,602.8488397975667 -63.571718370400674,602.8488397975667 -63.571718370400674,602.8488397975667 Z" fill="#000000"/>
						</g>
					</g>
				</g>
			</g>
			<g>
				<g>
					<g>
						<g>
							<path d="M-57.868028966568716,581.3535595503851 C-56.920111635869034,580.4108511889568 -55.89927954367829,579.9473082369097 -54.8055288752991,579.9577261754526 C-53.71177820691992,579.9733511759183 -52.65969547801495,580.478559524308 -51.65969544821263,581.4785595541103 C-51.65969544821263,581.4785595541103 -45.30552859217704,587.8327264101459 -45.30552859217704,587.8327264101459 C-45.30552859217704,587.8327264101459 -48.05552867413343,590.5827264921023 -48.05552867413343,590.5827264921023 C-48.05552867413343,590.5827264921023 -53.576362172000415,585.0618929942353 -53.576362172000415,585.0618929942353 C-54.107612823615796,584.5358513118914 -54.65448752202249,584.2650179704866 -55.222195554383404,584.249392970021 C-55.805528905101426,584.2233513025782 -56.33677828515101,584.4525179760745 -56.82636226885796,584.93689299051 C-57.409695619575984,585.5202263412281 -57.701362294934995,586.1973084231743 -57.701362294934995,586.9577263840689 C-57.701362294934995,587.7233520426691 -57.378444982861765,588.4264770636239 -56.7430289330411,589.0618931134446 C-56.7430289330411,589.0618931134446 -51.638862114258416,594.1660599322273 -51.638862114258416,594.1660599322273 C-51.638862114258416,594.1660599322273 -54.3888621962148,596.9160600141837 -54.3888621962148,596.9160600141837 C-54.3888621962148,596.9160600141837 -63.61802913793207,587.6868930724664 -63.61802913793207,587.6868930724664 C-63.61802913793207,587.6868930724664 -61.3055290690142,585.3743930035486 -61.3055290690142,585.3743930035486 C-61.3055290690142,585.3743930035486 -59.222195673592694,586.6243930408015 -59.222195673592694,586.6243930408015 C-59.222195673592694,586.6243930408015 -59.20136233963848,586.6035597068472 -59.20136233963848,586.6035597068472 C-59.47740369664038,585.634810949542 -59.5034450461917,584.7025179835251 -59.28469567545534,583.8118929569824 C-59.07636233591319,582.9108512634626 -58.60240367056335,582.0931441773255 -57.868028966568716,581.3535595503851 C-57.868028966568716,581.3535595503851 -57.868028966568716,581.3535595503851 -57.868028966568716,581.3535595503851 Z" fill="#000000"/>
						</g>
					</g>
				</g>
			</g>
			<g>
				<g>
					<g>
						<g>
							<path d="M-40.78420206890286,583.8530513108923 C-41.74253543079675,584.8113846727862 -42.7789941129104,585.3634686583557 -43.8883688280809,585.4988846932753 C-44.9977435432514,585.6395100153577 -45.940451586788186,585.3218019904473 -46.721702245854146,584.5405513313814 C-47.51336893611432,583.7488846411212 -47.83628624818755,582.7384685801246 -47.700868941702254,581.498884574066 C-47.560243619619854,580.2645101730616 -46.87274359913076,578.8895101320834 -45.638368880234964,577.3738844511314 C-45.638368880234964,577.3738844511314 -44.05503549971462,575.3738843915268 -44.05503549971462,575.3738843915268 C-43.86232747852958,575.1238843840762 -43.758160808758504,574.8738843766256 -43.742535490401394,574.623884369175 C-43.73211818764139,574.3738843617244 -43.81545152345825,574.1603426886937 -43.992535497851975,573.9780510165943 C-44.39878483443984,573.5770093379757 -44.872743519657895,573.4155509998305 -45.43003554069281,573.4988843356474 C-45.997743573053725,573.571802276053 -46.52378493750621,573.8478426793805 -47.01336892121316,574.332217693816 C-47.56545163521696,574.8895093770913 -47.851910294978865,575.5197177292063 -47.867535613335974,576.2280510836496 C-47.87795291609598,576.9363844380929 -47.68003560774804,577.5405511227651 -47.26336892866374,578.0405511376663 C-47.26336892866374,578.0405511376663 -50.388369021795995,580.2905512047215 -50.388369021795995,580.2905512047215 C-50.95607673626546,579.6134684869924 -51.2894100795329,578.8270101302207 -51.38836905159832,577.9363844678952 C-51.49774341907505,577.0353434101582 -51.3571184148841,576.1030510799243 -50.97170237251402,575.1447177180304 C-50.58107672508959,574.1863843561365 -49.956077024354585,573.2801356006939 -49.09670231663466,572.4155509700282 C-47.72170227565647,571.04055092905 -46.294619535575634,570.2853425732097 -44.82586885602058,570.1447175690188 C-43.35711817646552,570.0092996267506 -42.03420210615576,570.5197175801947 -40.86753540471972,571.6863842816307 C-40.86753540471972,571.6863842816307 -37.305035298548944,575.2488843878015 -37.305035298548944,575.2488843878015 C-36.86232758780477,575.6968023393829 -36.4873275766289,575.7645094031683 -36.18003526502133,575.4572177273436 C-35.91961922637654,575.1968023244817 -35.81545128503967,574.811384374763 -35.867535255708106,574.3113843598618 C-35.867535255708106,574.3113843598618 -33.763368526332385,575.1238843840762 -33.763368526332385,575.1238843840762 C-33.763368526332385,575.6811760673514 -33.90920186401189,576.2488844176038 -34.2008685393709,576.8322177683218 C-34.49253521472991,577.4155511190398 -34.85711792314578,577.9259671651353 -35.284201904990084,578.3530511469795 C-35.825868587799675,578.8947178297891 -36.45086860642613,579.2228434753508 -37.15920196086944,579.3322178428276 C-37.857118012552746,579.431176814893 -38.445660968325114,579.2905511749192 -38.93003534697772,578.9155511637433 C-38.93003534697772,578.9155511637433 -39.26336869024516,578.6238844883843 -39.26336869024516,578.6238844883843 C-39.26336869024516,578.6238844883843 -39.30503535815359,578.6655511562927 -39.30503535815359,578.6655511562927 C-39.0446193195088,579.5145101507098 -39.028994319043136,580.3947178744926 -39.26336869024516,581.311384568478 C-39.50295266650153,582.2280512624635 -40.008160696999795,583.0770099389892 -40.78420206890286,583.8530513108923 C-40.78420206890286,583.8530513108923 -40.78420206890286,583.8530513108923 -40.78420206890286,583.8530513108923 ZM-41.638368761025674,580.915551223348 C-40.9873273928479,580.2645101730616 -40.65399404958046,579.5301351511755 -40.63836873122335,578.7072178242012 C-40.61232738167203,577.8738844660326 -40.90920207262815,577.144717777635 -41.5342020912546,576.5197177590086 C-41.5342020912546,576.5197177590086 -41.90920210243047,576.1447177478327 -41.90920210243047,576.1447177478327 C-41.90920210243047,576.1447177478327 -43.51336881690503,578.1238844734831 -43.51336881690503,578.1238844734831 C-44.19566082179702,578.9728434679002 -44.57066057965314,579.6603434883893 -44.63836885043264,580.1863845349504 C-44.70607712121214,580.7176339150001 -44.59149391360736,581.1343005940844 -44.284202173210986,581.4363845722033 C-43.982118155355536,581.7436768838108 -43.575868818767674,581.8478432356906 -43.07586880386651,581.7488845815166 C-42.57586878896535,581.6551352145054 -42.096702108018405,581.3738845703407 -41.638368761025674,580.915551223348 C-41.638368761025674,580.915551223348 -41.638368761025674,580.915551223348 -41.638368761025674,580.915551223348 Z" fill="#000000"/>
						</g>
					</g>
				</g>
			</g>
			<g>
				<g>
					<g>
						<g>
							<path d="M-31.0420298351425,573.5691971355333 C-31.0420298351425,573.5691971355333 -43.771196881167896,567.8400302981241 -43.771196881167896,567.8400302981241 C-43.771196881167896,567.8400302981241 -40.93786346339465,565.0066968803509 -40.93786346339465,565.0066968803509 C-40.93786346339465,565.0066968803509 -31.58369651795209,569.6108636842324 -31.58369651795209,569.6108636842324 C-31.58369651795209,569.6108636842324 -31.54202985004366,569.569197016324 -31.54202985004366,569.569197016324 C-31.54202985004366,569.569197016324 -36.1670299878794,560.2358634048356 -36.1670299878794,560.2358634048356 C-36.1670299878794,560.2358634048356 -33.333696570106156,557.4025299870624 -33.333696570106156,557.4025299870624 C-33.333696570106156,557.4025299870624 -27.667029734559662,570.1941970349504 -27.667029734559662,570.1941970349504 C-27.667029734559662,570.1941970349504 -31.0420298351425,573.5691971355333 -31.0420298351425,573.5691971355333 Z" fill="#000000"/>
						</g>
					</g>
				</g>
			</g>
			<g>
				<g>
					<g>
						<g>
							<path d="M-20.619163006402857,563.6880122483923 C-21.57749636829675,564.6463456102862 -22.613955050410397,565.1984295958557 -23.7233297655809,565.3338456307753 C-24.832704480751403,565.4744709528577 -25.775412524288186,565.1567629279473 -26.556663183354146,564.3755122688814 C-27.34832987361432,563.5838455786212 -27.671247185687548,562.5734295176246 -27.535829879202254,561.333845511566 C-27.395204557119854,560.0994711105616 -26.707704536630757,558.7244710695834 -25.473329817734964,557.2088453886314 C-25.473329817734964,557.2088453886314 -23.88999643721462,555.2088453290268 -23.88999643721462,555.2088453290268 C-23.69728841602958,554.9588453215762 -23.593121746258504,554.7088453141256 -23.577496427901394,554.458845306675 C-23.56707912514139,554.2088452992244 -23.65041246095825,553.9953036261937 -23.827496435351975,553.8130119540943 C-24.23374577193984,553.4119702754757 -24.707704457157895,553.2505119373305 -25.264996478192813,553.3338452731474 C-25.832704510553725,553.406763213553 -26.358745875006207,553.6828036168805 -26.848329858713157,554.167178631316 C-27.40041257271696,554.7244703145913 -27.686871232478865,555.3546786667063 -27.702496550835974,556.0630120211496 C-27.71291385359598,556.7713453755929 -27.51499654524804,557.3755120602651 -27.098329866163738,557.8755120751663 C-27.098329866163738,557.8755120751663 -30.223329959295995,560.1255121422215 -30.223329959295995,560.1255121422215 C-30.79103767376546,559.4484294244924 -31.1243710170329,558.6619710677207 -31.223329989098318,557.7713454053952 C-31.33270435657505,556.8703043476582 -31.1920793523841,555.9380120174243 -30.806663310014017,554.9796786555304 C-30.416037662589588,554.0213452936365 -29.791037961854585,553.1150965381939 -28.931663254134662,552.2505119075282 C-27.55666321315647,550.87551186655 -26.129580473075634,550.1203035107097 -24.660829793520577,549.9796785065188 C-23.19207911396552,549.8442605642506 -21.86916304365576,550.3546785176947 -20.702496342219717,551.5213452191307 C-20.702496342219717,551.5213452191307 -17.139996236048944,555.0838453253015 -17.139996236048944,555.0838453253015 C-16.69728852530477,555.5317632768829 -16.3222885141289,555.5994703406683 -16.01499620252133,555.2921786648436 C-15.75458016387654,555.0317632619817 -15.650412222539671,554.646345312263 -15.702496193208106,554.1463452973618 C-15.702496193208106,554.1463452973618 -13.598329463832385,554.9588453215762 -13.598329463832385,554.9588453215762 C-13.598329463832385,555.5161370048514 -13.74416280151189,556.0838453551038 -14.035829476870902,556.6671787058218 C-14.327496152229912,557.2505120565398 -14.692078860645779,557.7609281026353 -15.119162842490084,558.1880120844795 C-15.660829525299675,558.7296787672891 -16.285829543926127,559.0578044128508 -16.99416289836944,559.1671787803276 C-17.692078950052746,559.266137752393 -18.280621905825114,559.1255121124192 -18.764996284477718,558.7505121012433 C-18.764996284477718,558.7505121012433 -19.09832962774516,558.4588454258843 -19.09832962774516,558.4588454258843 C-19.09832962774516,558.4588454258843 -19.13999629565359,558.5005120937927 -19.13999629565359,558.5005120937927 C-18.879580257008797,559.3494710882098 -18.863955256543136,560.2296788119926 -19.09832962774516,561.146345505978 C-19.33791360400153,562.0630121999635 -19.843121634499795,562.9119708764892 -20.619163006402857,563.6880122483923 C-20.619163006402857,563.6880122483923 -20.619163006402857,563.6880122483923 -20.619163006402857,563.6880122483923 ZM-21.473329698525674,560.750512160848 C-20.822288330347902,560.0994711105616 -20.48895498708046,559.3650960886755 -20.473329668723352,558.5421787617012 C-20.44728831917203,557.7088454035326 -20.744163010128148,556.979678715135 -21.3691630287546,556.3546786965086 C-21.3691630287546,556.3546786965086 -21.74416303993047,555.9796786853327 -21.74416303993047,555.9796786853327 C-21.74416303993047,555.9796786853327 -23.34832975440503,557.9588454109831 -23.34832975440503,557.9588454109831 C-24.03062175929702,558.8078044054002 -24.405621517153143,559.4953044258893 -24.47332978793264,560.0213454724504 C-24.54103805871214,560.5525948525001 -24.42645485110736,560.9692615315844 -24.119163110710986,561.2713455097033 C-23.81707909285554,561.5786378213108 -23.410829756267674,561.6828041731906 -22.910829741366513,561.5838455190166 C-22.41082972646535,561.4900961520054 -21.931663045518405,561.2088455078407 -21.473329698525674,560.750512160848 C-21.473329698525674,560.750512160848 -21.473329698525674,560.750512160848 -21.473329698525674,560.750512160848 Z" fill="#000000"/>
						</g>
					</g>
				</g>
			</g>
			<g>
				<g>
					<g>
						<g>
							<path d="M-15.769655553482778,539.2551708785101 C-14.821738222783097,538.3124625170818 -13.800906130592352,537.8489195650347 -12.707155462213166,537.8593375035776 C-11.613404793833979,537.8749625040433 -10.561322064929016,538.380170852433 -9.561322035126693,539.3801708822353 C-9.561322035126693,539.3801708822353 -3.207155179091103,545.7343377382709 -3.207155179091103,545.7343377382709 C-3.207155179091103,545.7343377382709 -5.95715526104749,548.4843378202273 -5.95715526104749,548.4843378202273 C-5.95715526104749,548.4843378202273 -11.477988758914478,542.9635043223603 -11.477988758914478,542.9635043223603 C-12.009239410529858,542.4374626400164 -12.556114108936555,542.1666292986116 -13.123822141297467,542.151004298146 C-13.707155492015488,542.1249626307032 -14.238404872065075,542.3541293041995 -14.727988855772026,542.838504318635 C-15.311322206490047,543.4218376693531 -15.602988881849058,544.0989197512993 -15.602988881849058,544.8593377121939 C-15.602988881849058,545.6249633707941 -15.280071569775828,546.3280883917489 -14.644655519955165,546.9635044415696 C-14.644655519955165,546.9635044415696 -9.540488701172478,552.0676712603523 -9.540488701172478,552.0676712603523 C-9.540488701172478,552.0676712603523 -12.290488783128865,554.8176713423087 -12.290488783128865,554.8176713423087 C-12.290488783128865,554.8176713423087 -21.51965572484613,545.5885044005914 -21.51965572484613,545.5885044005914 C-21.51965572484613,545.5885044005914 -19.20715565592826,543.2760043316736 -19.20715565592826,543.2760043316736 C-19.20715565592826,543.2760043316736 -17.123822260506756,544.5260043689265 -17.123822260506756,544.5260043689265 C-17.123822260506756,544.5260043689265 -17.10298892655254,544.5051710349722 -17.10298892655254,544.5051710349722 C-17.379030283554442,543.536422277667 -17.405071633105763,542.6041293116501 -17.1863222623694,541.7135042851074 C-16.97798892282725,540.8124625915876 -16.50403025747741,539.9947555054505 -15.769655553482778,539.2551708785101 C-15.769655553482778,539.2551708785101 -15.769655553482778,539.2551708785101 -15.769655553482778,539.2551708785101 Z" fill="#000000"/>
						</g>
					</g>
				</g>
			</g>
			<g>
				<g>
					<g/>
				</g>
			</g>
			<g>
				<g>
					<g>
						<g>
							<path d="M2.4254078307670284,540.1017899872019 C2.4254078307670284,540.1017899872019 -10.428759218983657,527.2476229374512 -10.428759218983657,527.2476229374512 C-10.428759218983657,527.2476229374512 -7.324592459805615,524.1434561782731 -7.324592459805615,524.1434561782731 C-7.324592459805615,524.1434561782731 5.529574589945071,536.9976232280238 5.529574589945071,536.9976232280238 C5.529574589945071,536.9976232280238 2.4254078307670284,540.1017899872019 2.4254078307670284,540.1017899872019 Z" fill="#000000"/>
						</g>
					</g>
				</g>
			</g>
			<g>
				<g>
					<g>
						<g>
							<path d="M3.7647224982750345,519.7207470503851 C4.712639828974716,518.7780386889568 5.73347192116546,518.3144957369097 6.827222589544647,518.3249136754526 C7.920973257923833,518.3405386759183 8.973055986828797,518.845747024308 9.97305601663112,519.8457470541103 C9.97305601663112,519.8457470541103 16.32722287266671,526.1999139101459 16.32722287266671,526.1999139101459 C16.32722287266671,526.1999139101459 13.577222790710323,528.9499139921023 13.577222790710323,528.9499139921023 C13.577222790710323,528.9499139921023 8.056389292843335,523.4290804942353 8.056389292843335,523.4290804942353 C7.525138641227954,522.9030388118914 6.978263942821258,522.6322054704866 6.410555910460346,522.616580470021 C5.827222559742324,522.5905388025782 5.295973179692737,522.8197054760745 4.806389195985787,523.30408049051 C4.223055845267766,523.8874138412281 3.931389169908755,524.5644959231743 3.931389169908755,525.3249138840689 C3.931389169908755,526.0905395426691 4.254306481981985,526.7936645636239 4.889722531802647,527.4290806134446 C4.889722531802647,527.4290806134446 9.993889350585334,532.5332474322273 9.993889350585334,532.5332474322273 C9.993889350585334,532.5332474322273 7.243889268628948,535.2832475141837 7.243889268628948,535.2832475141837 C7.243889268628948,535.2832475141837 -1.9852776730883193,526.0540805724664 -1.9852776730883193,526.0540805724664 C-1.9852776730883193,526.0540805724664 0.32722239582955126,523.7415805035486 0.32722239582955126,523.7415805035486 C0.32722239582955126,523.7415805035486 2.4105557912510562,524.9915805408015 2.4105557912510562,524.9915805408015 C2.4105557912510562,524.9915805408015 2.4313891252052713,524.9707472068472 2.4313891252052713,524.9707472068472 C2.15534776820337,524.001998449542 2.1293064186520496,523.0697054835251 2.348055789388411,522.1790804569824 C2.5563891289305616,521.2780387634626 3.0303477942804022,520.4603316773255 3.7647224982750345,519.7207470503851 C3.7647224982750345,519.7207470503851 3.7647224982750345,519.7207470503851 3.7647224982750345,519.7207470503851 Z" fill="#000000"/>
						</g>
					</g>
				</g>
			</g>
			<g>
				<g>
					<g>
						<g>
							<path d="M21.786064682669632,521.2827387829526 C20.97877267405235,522.0900307915699 20.06210598006689,522.5952388220682 19.036064600713246,522.8035721616103 C18.004813934196704,523.0119055011525 16.96314787226885,522.9285721653356 15.890231173626773,522.5535721541597 C14.80689780800759,522.1681548402239 13.775648413056842,521.4806560913005 12.786064414448731,520.4910720926924 C11.801689703003518,519.5066976991386 11.119397698111527,518.4806560018935 10.744397686935656,517.4077386674686 C10.369397675759785,516.3400309380979 10.286064339942925,515.2931546353329 10.494397679485076,514.2619052403821 C10.692314987833015,513.2202385426714 11.192315002734176,512.2983635151974 11.994397724188559,511.49107182447153 C13.468356419340722,510.02232305226516 15.223564487091892,509.6369051025464 17.265231214604967,510.3452384569897 C17.265231214604967,510.3452384569897 17.28606454855918,510.3244051230355 17.28606454855918,510.3244051230355 C17.28606454855918,510.3244051230355 11.348564371607893,504.3869049460842 11.348564371607893,504.3869049460842 C11.348564371607893,504.3869049460842 14.09856445356428,501.6369048641278 14.09856445356428,501.6369048641278 C14.09856445356428,501.6369048641278 27.494398186124556,515.0327385966881 27.494398186124556,515.0327385966881 C27.494398186124556,515.0327385966881 25.181898117206686,517.345238665606 25.181898117206686,517.345238665606 C25.181898117206686,517.345238665606 22.994398052014105,515.991071958582 22.994398052014105,515.991071958582 C23.327731395281546,516.9910719883843 23.39023139714419,517.9441976525725 23.18189805760204,518.8452387103094 C22.97356471805989,519.751488101535 22.504814068307155,520.563989397315 21.786064682669632,521.2827387829526 C21.786064682669632,521.2827387829526 21.786064682669632,521.2827387829526 21.786064682669632,521.2827387829526 ZM20.431897975645654,517.9702386842324 C20.890231322638385,517.5119053372397 21.181897997997396,516.9910719883843 21.306898001722686,516.4077386376663 C21.431898005447977,515.8244052869483 21.40064864029955,515.2410719362302 21.223564665905826,514.6577385855122 C21.041272675914996,514.0744052347942 20.707939332647555,513.5431539473959 20.223564636103504,513.0535718710377 C19.499605963303082,512.3348205780514 18.66627260513448,511.94940517146426 17.723564561597698,511.90773850355583 C16.7964805251158,511.8556564402361 15.989189827800743,512.1681539064177 15.306897822908752,512.8452385314955 C14.64023113637387,513.5119052180304 14.327731127060645,514.3191969087562 14.369397794969075,515.2619052701845 C14.411064462877505,516.2098213293184 14.796480505247587,517.043154687487 15.515231162450903,517.7619053446903 C16.25481388204264,518.5014880642821 17.08293947296683,518.8869053782179 18.01523123695671,518.9285720461263 C18.95793928049349,518.9598214112748 19.765231289110773,518.6369053707673 20.431897975645654,517.9702386842324 C20.431897975645654,517.9702386842324 20.431897975645654,517.9702386842324 20.431897975645654,517.9702386842324 Z" fill="#000000"/>
						</g>
					</g>
				</g>
			</g>
			<g>
				<g>
					<g>
						<g>
							<path d="M32.192741904548996,510.8761225962295 C31.244825845415107,511.8240386553634 30.223991210092777,512.2927893051161 29.130241813279383,512.2927893051161 C28.0469084476602,512.2823720023562 27.005241749949448,511.77195595626074 26.005241720147126,510.7719559264584 C26.005241720147126,510.7719559264584 19.651074864111536,504.4177890704228 19.651074864111536,504.4177890704228 C19.651074864111536,504.4177890704228 22.421908280022137,501.6469556545122 22.421908280022137,501.6469556545122 C22.421908280022137,501.6469556545122 27.942741777889125,507.1677891523792 27.942741777889125,507.1677891523792 C28.45315913528672,507.68341480352893 28.994825778359882,507.9594558426394 29.5677418263179,508.0011225105478 C30.15107517703592,508.03237187569624 30.682324557085508,507.80320647376567 31.171908540792458,507.3136224900587 C31.76565792270469,506.7198731081465 32.0573245980637,506.03758142114594 32.04690856686949,505.27195576254564 C32.03128324851238,504.5115397089997 31.70315919240784,503.80841468804493 31.067741871021383,503.1677890331699 C31.067741871021383,503.1677890331699 25.98440838619291,498.08445554834145 25.98440838619291,498.08445554834145 C25.98440838619291,498.08445554834145 28.755241802103512,495.31362213243085 28.755241802103512,495.31362213243085 C28.755241802103512,495.31362213243085 37.98440874382078,504.5427890741481 37.98440874382078,504.5427890741481 C37.98440874382078,504.5427890741481 35.651075340948694,506.8761224770202 35.651075340948694,506.8761224770202 C35.651075340948694,506.8761224770202 33.546908611572974,505.6052891058131 33.546908611572974,505.6052891058131 C33.546908611572974,505.6052891058131 33.52607527761876,505.6261224397673 33.52607527761876,505.6261224397673 C33.82815925573777,506.60008143790975 33.86461631859186,507.5375814658494 33.630241947389834,508.43862252358633 C33.406283289490574,509.3292478680205 32.92711660854363,510.1417478922349 32.192741904548996,510.8761225962295 C32.192741904548996,510.8761225962295 32.192741904548996,510.8761225962295 32.192741904548996,510.8761225962295 Z" fill="#000000"/>
						</g>
					</g>
				</g>
			</g>
			<g>
				<g>
					<g>
						<g>
							<path d="M43.89875593795597,499.29504753139156 C43.065422579787366,500.12838088956016 42.190422553710334,500.7533809081866 41.27375585972487,501.1700475872709 C40.35708916573941,501.5867142663552 39.46125580570816,501.76379824074894 38.58625577963113,501.6908809361263 C37.7112557535541,501.62317291866657 36.909173032099716,501.2637982258478 36.169589040942185,500.6075475705071 C36.169589040942185,500.6075475705071 38.29458910427212,497.9408808243676 38.29458910427212,497.9408808243676 C38.83625578708171,498.3992141713603 39.46646382130527,498.56067282739696 40.19042249410569,498.4200475053145 C40.909173151309005,498.28463019882923 41.5862558690381,497.89921415645915 42.21125588766455,497.2742141378327 C42.72167193375992,496.7637980917373 43.05500527702736,496.22213140892774 43.21125591746687,495.6492140894039 C43.36229727074348,495.08150637493446 43.29458925328373,494.6492140596016 43.00292257792472,494.3575473842426 C42.71125590256571,494.0658807088836 42.32583986019563,493.9825473730667 41.85708921044289,494.107547376792 C41.39875586345016,494.2221313493231 40.794589178777926,494.55546469259053 40.044589156426184,495.10754740659434 C40.044589156426184,495.10754740659434 38.440422441951625,496.25338077407616 38.440422441951625,496.25338077407616 C37.24771439096426,497.1179634973932 36.221671740044826,497.5762968443859 35.3570890167278,497.62838081505436 C34.482088990650766,497.6700474829628 33.66958896643638,497.31588080574113 32.91958894408464,496.5658807833894 C31.976881218439303,495.62317305774405 31.601881207263432,494.5137980246821 31.794588910557025,493.232547350715 C31.992506218904964,491.9565056460193 32.68000496782827,490.7273389427206 33.857088972024314,489.5450472408189 C34.59667169161605,488.81067221893284 35.37271433508491,488.26900553612325 36.1904223748964,487.92004719239014 C36.99771438351368,487.56067218167993 37.78938107377385,487.39921384353477 38.565422445676916,487.4408805114432 C39.34146381757998,487.4825471793516 40.03417312523197,487.7429625822135 40.64875584109842,488.21171386774915 C40.64875584109842,488.21171386774915 38.62792244753956,490.8992139478429 38.62792244753956,490.8992139478429 C38.20083977699748,490.55546520916414 37.70083972235989,490.43046520543885 37.12792240283608,490.524213936667 C36.560214370475165,490.62317227294955 36.034173006022684,490.91483894830856 35.54458902231573,491.39921396274406 C35.11750631203722,491.831505642294 34.85188098622953,492.28983898928675 34.75292233205556,492.77421400372225 C34.65917296504449,493.2637979874292 34.74250630086135,493.6492140297993 35.00292233950614,493.9408807051583 C35.24250631576251,494.18046468141466 35.56542235626995,494.2533807144715 35.98208903535425,494.17004737865466 C36.388338411678546,494.0762967400778 36.89875572933971,493.7950473674788 37.52375574796616,493.33671402048606 C37.52375574796616,493.33671402048606 39.12792246244072,492.1908806530042 39.12792246244072,492.1908806530042 C40.502922503418915,491.23254729111034 41.66958920485496,490.71171394225496 42.62792256674885,490.6283806064381 C43.596671959836954,490.53462933207834 44.471671985913986,490.8731722804001 45.25292264497995,491.64921397019464 C45.88833869480061,492.28983898928675 46.25292267478227,493.03462940658414 46.33625601059913,493.87838070329565 C46.41958934641599,494.7273396977128 46.25292267478227,495.62317305774405 45.83625599569797,496.5658807833894 C45.43000534780788,497.4981731136234 44.784173266793005,498.4096302025545 43.89875593795597,499.29504753139156 C43.89875593795597,499.29504753139156 43.89875593795597,499.29504753139156 43.89875593795597,499.29504753139156 Z" fill="#000000"/>
						</g>
					</g>
				</g>
			</g>
			<g>
				<g>
					<g>
						<g>
							<path d="M53.972466079659455,489.3047317606612 C52.85788207732605,490.4193157629946 51.67038331350159,490.9870237953555 50.40996597348868,491.0130651449068 C49.15996593623578,491.02869046326396 48.01413256875395,490.51306513000566 46.9724658710432,489.4713984322949 C46.9724658710432,489.4713984322949 42.86829908206283,485.36723164331454 42.86829908206283,485.36723164331454 C42.86829908206283,485.36723164331454 41.11829902990877,487.1172316954686 41.11829902990877,487.1172316954686 C41.11829902990877,487.1172316954686 39.034965634487264,485.0338983000471 39.034965634487264,485.0338983000471 C39.034965634487264,485.0338983000471 40.78496568664133,483.28389824789303 40.78496568664133,483.28389824789303 C40.78496568664133,483.28389824789303 38.22246561027288,480.7213981715246 38.22246561027288,480.7213981715246 C38.22246561027288,480.7213981715246 40.38913234151124,477.3880647388502 40.38913234151124,477.3880647388502 C40.38913234151124,477.3880647388502 43.534965768597715,480.53389816593665 43.534965768597715,480.53389816593665 C43.534965768597715,480.53389816593665 47.201632544539564,476.8672313899948 47.201632544539564,476.8672313899948 C47.201632544539564,476.8672313899948 49.28496593996107,478.9505647854163 49.28496593996107,478.9505647854163 C49.28496593996107,478.9505647854163 45.61829916401922,482.61723156135815 45.61829916401922,482.61723156135815 C45.61829916401922,482.61723156135815 49.28496593996107,486.2838983373 49.28496593996107,486.2838983373 C49.78496595486223,486.78389835220116 50.31621533491182,487.04431566241175 50.88913265443563,487.05473169360596 C51.45684068679654,487.0703573298545 51.94121538334059,486.877648990778 52.34746603123068,486.47139834288794 C53.16517407104217,485.6536906209679 53.399548760135644,484.6276489237228 53.05579938567399,483.3880649176641 C53.05579938567399,483.3880649176641 55.59746612808823,484.3047316116496 55.59746612808823,484.3047316116496 C55.79017383138182,485.1380649698182 55.73288216300773,486.0130649958952 55.43079945645451,486.92973168988067 C55.12350714484694,487.84639838386613 54.63913276619434,488.6380650741263 53.972466079659455,489.3047317606612 C53.972466079659455,489.3047317606612 53.972466079659455,489.3047317606612 53.972466079659455,489.3047317606612 Z" fill="#000000"/>
						</g>
					</g>
				</g>
			</g>
			<g>
				<g>
					<g>
						<g>
							<path d="M53.56477130218565,469.9207592816307 C54.37206331080293,469.1186746528276 55.31477135433971,468.73325924624044 56.398104719958894,468.77492591414887 C57.46581276722097,468.806177186646 58.56477145119726,469.28534132446134 59.68977148472487,470.2124259569897 C59.68977148472487,470.2124259569897 58.02310476838767,473.17075937848824 58.02310476838767,473.17075937848824 C57.39810474976122,472.6603414250442 56.80956340331431,472.36867474968517 56.25227138227939,472.2957593524112 C55.70018866827559,472.22805101706 55.22102071576285,472.39471768869373 54.81477133943855,472.79575936731237 C54.28872997498607,473.32700811157906 54.096020682235235,473.9520081302055 54.23143798872053,474.6707594231917 C54.37206331080293,475.3947184138836 54.81477133943855,476.1290927999868 55.56477136179029,476.8790928223385 C55.56477136179029,476.8790928223385 60.606438178710334,481.92075963925856 60.606438178710334,481.92075963925856 C60.606438178710334,481.92075963925856 57.85643809675395,484.67075972121495 57.85643809675395,484.67075972121495 C57.85643809675395,484.67075972121495 48.62727115503668,475.4415927794977 48.62727115503668,475.4415927794977 C48.62727115503668,475.4415927794977 50.81477122022926,473.2540927143051 50.81477122022926,473.2540927143051 C50.81477122022926,473.2540927143051 52.731437944017046,474.29575941201585 52.731437944017046,474.29575941201585 C52.439771268658035,473.4780510543129 52.36685523560118,472.68638436405274 52.50227127052068,471.92075934123534 C52.64289659260308,471.1603413803407 52.997063269824736,470.4936746938058 53.56477130218565,469.9207592816307 C53.56477130218565,469.9207592816307 53.56477130218565,469.9207592816307 53.56477130218565,469.9207592816307 Z" fill="#000000"/>
						</g>
					</g>
				</g>
			</g>
			<g>
				<g>
					<g>
						<g>
							<path d="M57.9388352876079,463.588300869356 C57.4544609089553,464.0778854888458 56.918001923851364,464.3278854962964 56.33466857313334,464.3383008917077 C55.74091791965532,464.3383008917077 55.204460206117176,464.1039258847228 54.73050185865878,463.6299675372644 C54.26175311625474,463.16121879486036 54.032583899626786,462.6299675074621 54.04300183816969,462.04663415674406 C54.05862683863535,461.46330080602604 54.30862684608593,460.93204951862776 54.79300186052143,460.4424674422695 C55.28258393687969,459.958092427834 55.813835224277966,459.7080924203834 56.39716857499599,459.69246741991776 C56.98050192571401,459.68204948137486 57.51175257732939,459.9112186980028 57.98050195551633,460.37996744040686 C58.45446093875762,460.85392578786525 58.68883530995964,461.3903828656205 58.68883530995964,461.9841341548814 C58.67841927876543,462.56746750559944 58.42841927131485,463.1039258549205 57.9388352876079,463.588300869356 C57.9388352876079,463.588300869356 57.9388352876079,463.588300869356 57.9388352876079,463.588300869356 ZM67.0638355595541,475.46330122325855 C67.0638355595541,475.46330122325855 57.834668617836826,466.2341342815413 57.834668617836826,466.2341342815413 C57.834668617836826,466.2341342815413 60.58466869979321,463.4841341995849 60.58466869979321,463.4841341995849 C60.58466869979321,463.4841341995849 69.81383564151048,472.71330114130217 69.81383564151048,472.71330114130217 C69.81383564151048,472.71330114130217 67.0638355595541,475.46330122325855 67.0638355595541,475.46330122325855 Z" fill="#000000"/>
						</g>
					</g>
				</g>
			</g>
			<g>
				<g>
					<g>
						<g>
							<path d="M76.93168443828046,466.34548288446206 C75.84835107266127,467.42881625008124 74.67126706846523,468.1736082568359 73.41085100001811,468.57464961756307 C72.16085096276521,468.9652749470961 70.92126691697008,469.0225669333616 69.70251755616783,468.7413162891968 C68.46814283727204,468.4496496138378 67.35876812210154,467.8142335640171 66.36918412349343,466.824649565409 C65.38480941204821,465.84027517185524 64.73376804387044,464.7725668067017 64.41085073179721,463.6163161364599 C64.09314302477833,462.4652750712724 64.09835072248399,461.303816067542 64.43168406575143,460.137149366106 C64.76501740901887,458.97048266466993 65.42647607995664,457.89756723759365 66.41085079140186,456.90798260320264 C67.36918415329575,455.94964924130875 68.4056428354094,455.314233827271 69.5150175505799,454.99131587941486 C70.62439258364185,454.6736075366131 71.7285589653238,454.66839793155873 72.82751764930009,454.97048254546064 C73.9368923644706,455.26214922081965 74.96293374382424,455.88194090595755 75.91085107452392,456.8246492673858 C76.07751774615764,456.9913159390195 76.24418441779136,457.17881594460744 76.41085108942508,457.3871492841496 C76.5775177610588,457.59548262369174 76.7233510987383,457.793398024691 76.8483511024636,457.9704826348676 C76.8483511024636,457.9704826348676 70.01501756548106,464.80381617185014 70.01501756548106,464.80381617185014 C70.74939251782838,465.37673221980816 71.56710158085298,465.6111084983589 72.47335097207844,465.51214952629346 C73.3900176660639,465.4027751588167 74.2285590398296,464.9652751457782 74.99418438053846,464.1996494871779 C75.57751773125648,463.6163161364599 75.99939210804644,462.96527508617356 76.26501775174557,462.2413160954817 C76.54105879085603,461.5069417093785 76.62960046016144,460.81423399118376 76.53585109315037,460.1579827000602 C76.53585109315037,460.1579827000602 79.30668450906097,459.80381602283853 79.30668450906097,459.80381602283853 C79.541058880263,460.79339811409795 79.45251784674048,461.8819417205544 79.03585116765618,463.0746494536503 C78.62960051976609,464.2569417913349 77.93168446808278,465.34548285465974 76.93168443828046,466.34548288446206 C76.93168443828046,466.34548288446206 76.93168443828046,466.34548288446206 76.93168443828046,466.34548288446206 ZM68.39001751705229,463.2204827913298 C68.39001751705229,463.2204827913298 72.5566843078953,459.0538160004868 72.5566843078953,459.0538160004868 C71.81710158830356,458.42881598186034 71.08272561274313,458.1059005771358 70.3483509087485,458.0746493046387 C69.61397620475387,458.0486076371959 68.9629335650103,458.3194409786007 68.39001751705229,458.88714932885307 C67.80668416633426,459.4704826795711 67.52543479373526,460.1579827000602 67.53585082492947,460.94964939032036 C67.55147614328658,461.74131608058053 67.83793353148269,462.5017321341265 68.39001751705229,463.2204827913298 C68.39001751705229,463.2204827913298 68.39001751705229,463.2204827913298 68.39001751705229,463.2204827913298 Z" fill="#000000"/>
						</g>
					</g>
				</g>
			</g>
			<g>
				<g>
					<g>
						<g>
							<path d="M86.53883162154972,456.6549718477978 C85.70549826338112,457.4883052059664 84.83049823730408,458.11330522459286 83.91383154331862,458.52997190367716 C82.99716484933316,458.94663858276147 82.10133148930191,459.1237225571552 81.22633146322488,459.05080525253254 C80.35133143714785,458.9830972350728 79.54924871569347,458.62372254225403 78.80966472453593,457.96747188691336 C78.80966472453593,457.96747188691336 80.93466478786587,455.30080514077383 80.93466478786587,455.30080514077383 C81.47633147067546,455.75913848776656 82.10653950489902,455.9205971438032 82.83049817769944,455.7799718217208 C83.54924883490276,455.6445545152355 84.22633155263185,455.2591384728654 84.8513315712583,454.63413845423895 C85.36174761735367,454.1237224081436 85.69508096062111,453.582055725334 85.85133160106062,453.0091384058102 C86.00237295433723,452.4414306913407 85.93466493687748,452.00913837600785 85.64299826151847,451.71747170064884 C85.35133158615946,451.42580502528983 84.96591554378938,451.342471689473 84.49716489403664,451.46747169319826 C84.03883154704391,451.58205566572934 83.43466486237168,451.9153890089968 82.68466484001993,452.4674717230006 C82.68466484001993,452.4674717230006 81.08049812554538,453.6133050904824 81.08049812554538,453.6133050904824 C79.88779007455801,454.47788781379944 78.86174742363858,454.9362211607922 77.99716470032155,454.9883051314606 C77.12216467424452,455.02997179936904 76.30966465003013,454.6758051221474 75.55966462767839,453.92580509979564 C74.61695690203305,452.9830973741503 74.24195689085718,451.87372234108835 74.43466459415077,450.59247166712123 C74.63258190249871,449.31642996242556 75.32008065142202,448.08726325912687 76.49716465561806,446.90497155722517 C77.2367473752098,446.1705965353391 78.01279001867866,445.6289298525295 78.83049805849015,445.2799715087964 C79.63779006710743,444.9205964980862 80.4294567573676,444.759138159941 81.20549812927067,444.80080482784945 C81.98153950117373,444.8424714957579 82.67424880882572,445.1028868986198 83.28883152469217,445.5716381841554 C83.28883152469217,445.5716381841554 81.26799813113331,448.25913826424915 81.26799813113331,448.25913826424915 C80.84091546059123,447.9153895255704 80.34091540595364,447.7903895218451 79.76799808642983,447.8841382530733 C79.20029005406892,447.9830965893558 78.67424868961643,448.2747632647148 78.18466470590948,448.7591382791503 C77.75758199563097,449.19142995870027 77.49195666982328,449.649763305693 77.39299801564931,450.1341383201285 C77.29924864863824,450.62372230383545 77.3825819844551,451.00913834620553 77.64299802309989,451.30080502156454 C77.88258199935626,451.5403889978209 78.2054980398637,451.61330503087777 78.622164718948,451.5299716950609 C79.0284140952723,451.43622105648404 79.53883141293346,451.15497168388504 80.16383143155991,450.6966383368923 C80.16383143155991,450.6966383368923 81.76799814603447,449.5508049694105 81.76799814603447,449.5508049694105 C83.14299818701267,448.5924716075166 84.30966488844871,448.0716382586612 85.2679982503426,447.98830492284435 C86.2367476434307,447.8945536484846 87.11174766950774,448.2330965968064 87.8929983285737,449.0091382866009 C88.52841437839436,449.649763305693 88.89299835837602,450.3945537229904 88.97633169419288,451.2383050197019 C89.05966503000974,452.08726401411906 88.89299835837602,452.9830973741503 88.47633167929172,453.92580509979564 C88.07008103140163,454.85809743002966 87.42424895038675,455.7695545189608 86.53883162154972,456.6549718477978 C86.53883162154972,456.6549718477978 86.53883162154972,456.6549718477978 86.53883162154972,456.6549718477978 Z" fill="#000000"/>
						</g>
					</g>
				</g>
			</g>
		</g>
	</g>
</g></g></svg>