<svg xmlns="http://www.w3.org/2000/svg" xmlns:graphite="https://graphite.art" viewBox="0 0 1000 1000" width="1000" height="1000"><defs></defs><g>
<rect fill="#fefefe" fill-opacity="0" x="0" y="0" width="1000" height="1000"/>
<g>
	<g>
		<g transform="matrix(1.622251838,0,0,1.622279256,-129.323896012,-424.209127739)">
			<g>
				<g>
					<g>
						<path d="M481.0156420771964,503.2760489168577 C482.6562671260908,502.10938221542165 484.3385588428937,500.9687571814284 486.00001722574234,499.8385488144122 C524.6093933763914,526.0989662637003 577.1354366084561,522.4270911542699 626.4739797455259,473.0885480172001 C682.7604397563264,416.8020880063996 713.5833573415875,322.43229352729395 674.3906478402205,283.24479235941544 C635.2083550058305,244.0520815864826 540.8229355262592,274.8802087767981 484.55730884941295,331.1562521206215 C435.19793237838894,380.4947952576913 431.54689060291275,433.02604682324454 457.8125163856894,471.6354229738936 C444.1354326447472,492.3958402592689 427.10939047066495,511.1927158194594 409.26563993887976,528.2760496619157 C385.66668090224266,550.8802170022391 360.76043015997857,572.2395926387981 336.3125127647072,593.9323016186245 C311.30209535267204,616.1406356138177 285.8854279285297,637.8906362620182 260.4270938364789,659.5625119078904 C212.2500090673566,700.5573047962971 163.0468826009892,740.4739726525731 112.34896442340687,778.2812654459849 C107.90104762418196,781.5989738781936 103.16146414959803,784.6823073034175 99.14063069643453,788.5364740849473 C94.26042094609386,793.2187658911571 90.34375416270143,798.8698077262379 87.71354638676468,805.0937662450597 C83.27083855681121,815.6510582263581 82.67708790333319,827.6354335835204 85.98437966856483,838.5937672434375 C92.88542090511567,861.4843929256313 116.03646453330293,876.427101704292 139.7395902397111,873.3489766125567 C151.1614655801095,871.8646015683189 161.91146590048447,866.3385597369634 169.72917446680367,857.8593928175978 C173.14063290180638,854.1562677072361 175.9218829846941,849.8750175796449 178.93750807456672,845.8541841264814 C183.06771653098986,840.2968922941945 187.18229998694733,834.7396004619077 191.39584177918732,829.250016964972 C210.58855068450794,804.2343912194483 230.09375959914178,779.4635571478866 250.02084352634847,755.0052230856381 C292.02605311153457,703.4739715498872 335.46355440607294,653.1354283830151 379.5885557211004,603.4166769012809 C390.40105604333803,591.2291765380651 401.3177230353467,579.1406345111318 412.2343900273554,567.04688415071 C422.9270986793563,555.187508797273 433.656265665777,543.4166751131415 445.3645993480459,532.5260497885756 C456.64584968425333,522.0468828096054 468.4323083688505,512.166674181819 481.0156420771964,503.2760489168577" fill="#ffffff" fill-opacity="0"/>
					</g>
					<g>
						<g>
							<path d="M481.0156420771964,503.2760489168577 C481.0156420771964,503.2760489168577 483.4166838154197,506.6666740179062 483.4166838154197,506.6666740179062 C485.02085052989423,505.53125731740147 486.67710057925433,504.4114656173624 488.34376729559153,503.2760489168577 C488.34376729559153,503.2760489168577 486.00001722574234,499.8385488144122 486.00001722574234,499.8385488144122 C486.00001722574234,499.8385488144122 483.6614754893817,503.2760489168577 483.6614754893817,503.2760489168577 C499.625017631799,514.1406325739808 518.0156431798823,520.1354244193062 537.5260604280047,520.1354244193062 C567.1614779778756,520.1354244193062 599.114603930153,506.34375734161586 629.4218965000473,476.03125643823296 C649.1927304225974,456.23958918172866 665.8125225845724,431.94271345762536 677.5416896007955,406.8854210441932 C689.26564828353,381.80729529680684 696.1302318214439,355.97916952706873 696.1458568219095,332.9270855067298 C696.1354401549324,322.5416685305536 694.73960678,312.7083349041641 691.6875233557075,303.7864596382715 C688.6302315979265,294.875001039356 683.9114814572968,286.8750008009374 677.3333562612534,280.296875604894 C670.7604393986985,273.72395874233916 662.7604391602799,268.99479257051524 653.8385638943873,265.94270787465695 C644.9218969619833,262.8958334196359 635.0937716690823,261.4895840135093 624.7135630263947,261.4895840135093 C601.6562706725672,261.50520806030056 575.817728235852,268.36458421840024 550.7500191554427,280.0833339318633 C525.6823100750335,291.8125009480864 501.39585101790726,308.43229311006144 481.6146004283801,328.2083353661001 C451.29168285802007,358.5052112690173 437.5000157803297,390.45833722129464 437.5000157803297,420.09375477116555 C437.5000157803297,439.61458868626505 443.50001595914364,458.0052142343484 454.38022461673245,473.9739647102542 C454.38022461673245,473.9739647102542 457.8125163856894,471.6354229738936 457.8125163856894,471.6354229738936 C457.8125163856894,471.6354229738936 454.338557948824,469.35417290590703 454.338557948824,469.35417290590703 C440.9010575483553,489.75000684708357 424.08855704730377,508.32813240075484 406.3906398531981,525.2708412390202 C382.89584748633206,547.7708419095725 358.0416800789535,569.1041758786887 333.55730434926227,590.8229265259579 C308.5781369381584,612.9895938532427 283.18751118145883,634.718761167489 257.72917708940804,656.3906368133612 C209.59896732168272,697.348971367348 160.46875752415508,737.2083475552499 109.86458934936672,774.9427236798219 C105.55729755433276,778.1666821092367 100.67188074206933,781.3177238698117 96.26563061075285,785.5312656620517 C90.97917211987078,790.5989741464145 86.73958929597092,796.7187659954652 83.88542127267766,803.4739745301194 C81.09896380997574,810.0781413936056 79.71875448183465,817.1614749380387 79.71875448183465,824.255225149449 C79.71875448183465,829.494808638934 80.47396379134929,834.7343921284191 82.0052132012012,839.7968922792934 C88.88542142168927,862.5000179558992 110.26042269449681,877.885435081087 133.53646505484357,877.9062684150413 C135.77084012143314,877.9062684150413 138.02084018848836,877.7604350773618 140.2708402555436,877.4791850689799 C140.2708402555436,877.4791850689799 140.27604858903214,877.4687684020028 140.27604858903214,877.4687684020028 C152.6718822917901,875.8541850205511 164.29167430475354,869.890643176157 172.78646622458473,860.6771012349054 C176.50521633541211,856.6250177808106 179.35938308713958,852.2135593160056 182.25521650677547,848.3489758674987 C182.25521650677547,848.3489758674987 182.26563317375258,848.3385592005216 182.26563317375258,848.3385592005216 C186.40625829715282,842.7760590347461 190.51042508613318,837.2291838694364 194.69271687744185,831.7760587069206 C213.8698007822968,806.7916829623282 233.34896802948788,782.0573072251864 253.24480195576325,757.6302231638692 C295.1979282060638,706.1562632964924 338.6093878331594,655.8645951310173 382.69272248027846,606.1770936502144 C393.49480613553897,594.0052182874642 404.4062647940591,581.927092927508 415.3229317860678,569.8333425670862 C425.99480710411444,557.9843838806264 436.656265755184,546.3020918658003 448.187516098842,535.5729248793796 C459.3645997652784,525.1875079032034 471.01564177917317,515.4270909456536 483.4114754819311,506.6666740179062 C483.4114754819311,506.6666740179062 483.4166838154197,506.6666740179062 483.4166838154197,506.6666740179062 C483.4166838154197,506.6666740179062 481.0156420771964,503.2760489168577 481.0156420771964,503.2760489168577 C481.0156420771964,503.2760489168577 478.61980867246166,499.88021548232064 478.61980867246166,499.88021548232064 C465.84897495852783,508.8958407510072 453.91668293625116,518.901049382519 442.5260575967841,529.4791746977717 C430.6614739098586,540.5260500269942 419.8385569206439,552.3958420474082 409.1510566021316,564.2604257343337 C398.2343896101229,576.3541760947555 387.3177226181142,588.4531347886659 376.4791806284338,600.6510518188588 C332.3281376459636,650.4062616350129 288.84896968351677,700.7864714697935 246.7968850969337,752.3750146739185 C226.84375950228423,776.8750154040754 207.31771725369617,801.6666828095913 188.08855001395568,826.7187668895349 C183.85938322125003,832.250017054379 179.7291747648269,837.8229338871315 175.5937579749152,843.3750173859298 C175.5937579749152,843.3750173859298 175.5937579749152,843.3593923854642 175.5937579749152,843.3593923854642 C172.49479954922572,847.5364758432843 169.76563280122355,851.6927259671502 166.66667437553406,855.0416844002903 C159.5312574962154,862.7916846312582 149.65104886842892,867.8698097825982 139.20313189039007,869.2239764896221 C137.30209016706795,869.4687681635842 135.41146511072293,869.5885598338209 133.53646505484357,869.5885598338209 C113.95313113788143,869.6146015012637 95.68229726003483,856.4479344421998 89.9635470896028,837.3906422075815 C88.68229768720147,833.125017080456 88.0364643346208,828.6927252816968 88.0364643346208,824.255225149449 C88.0364643346208,818.2500166371465 89.21354643146816,812.2552247918211 91.54688047012314,806.7083496265113 C93.95313054183498,801.0156411235221 97.54167231544852,795.8333493024111 102.0156307821162,791.5364741743542 C105.65625589061528,788.0364740700461 110.2395893605426,785.0364739806391 114.83854783093557,781.6093905451708 C165.61979934433475,743.7395977498963 214.8958424795419,703.7656382252462 263.1198022500612,662.7291786689311 C288.5885530090891,641.0468863560818 314.0208454336971,619.2760523739271 339.0729295136407,597.0468850447796 C363.48959690798074,575.380217732396 388.42709765117615,553.9948004283942 412.14064002456143,531.2812580848113 C430.13022389402613,514.0520909046754 447.3698077411391,495.04688200494274 461.2916831560433,473.92708970885724 C462.20834985002875,472.5208396669477 462.2031415165402,470.68229794548824 461.25001648813486,469.29688123753294 C451.25001619011164,454.58333913236856 445.8229326950386,437.9062553020194 445.8229326950386,420.09375477116555 C445.8229326950386,393.1093789669685 458.3281414010562,363.270836411044 487.49480893695727,334.0937522081658 C506.5052261701785,315.0729183079675 530.0677268723957,298.9375011604279 554.2760609271936,287.61458415631205 C578.4687699815258,276.29166715219617 603.3125207219273,269.8020829896753 624.7135630263947,269.80729259472963 C634.3437716467306,269.80729259472963 643.2708552461118,271.1145849361395 651.145855480805,273.8125004116446 C659.0312723824754,276.52083382569253 665.8541892524809,280.588542280253 671.4531477526762,286.1875007804483 C677.0468979193829,291.7760426136665 681.1198147074319,298.6041678171605 683.8125231210142,306.48437638534233 C686.5208565350622,314.3645849535242 687.8281482406892,323.2916685529053 687.8177315737121,332.9270855067298 C687.8333565741777,354.32291947770864 681.3437730474398,379.16146188462153 670.0156477098353,403.3593792724423 C658.6875223722309,427.5572966602631 642.5573135581799,451.12500569596887 623.531271324493,470.14063126267865 C594.3489787881263,499.3072987985797 564.5104362322018,511.8125075045973 537.5260604280047,511.81771583808586 C519.7187682306394,511.8125075045973 503.05210106726736,506.39063234301284 488.34376729559153,496.4010487119667 C486.9271005867049,495.4322986830957 485.0781421982683,495.4322986830957 483.6614754893817,496.39584037847817 C481.9948087730445,497.5312570789829 480.3021003892645,498.68229877995327 478.60939200548455,499.88021548232064 C478.60939200548455,499.88021548232064 478.61980867246166,499.88021548232064 478.61980867246166,499.88021548232064 C478.61980867246166,499.88021548232064 481.0156420771964,503.2760489168577 481.0156420771964,503.2760489168577" fill="#000000"/>
						</g>
					</g>
					<g>
						<g>
							<g>
								<g>
									<g>
										<path d="M114.13021447649226,829.6614753105678 C114.13021447649226,829.6614753105678 114.94271450070664,829.7239753124304 114.94271450070664,829.7239753124304 C114.94271450070664,829.7239753124304 117.02604789612815,827.6146002495661 117.02604789612815,827.6146002495661 C118.74479794735089,825.8958501983434 119.29167296364903,825.1927251773886 120.21354799112305,823.6146001303568 C120.8385480097495,822.5521000986919 121.40104802651331,821.7343917409889 121.46354802837595,821.7968917428516 C121.7291730362922,822.0677250842564 121.30729802371934,824.1458501461893 120.47917299903929,826.6614752211608 C119.94792298320681,828.2239752677269 119.65104797435924,829.5521003073081 119.72917297668755,829.9427253189497 C119.91667298227549,830.848975345958 120.90104801161215,831.4583503641188 122.22917305119336,831.5052253655158 C123.19792308006436,831.5364753664471 123.36979808518663,831.4583503641188 124.16667310893536,830.6614753403701 C125.86979815969244,828.958350289613 127.91667322069407,823.7552251345478 128.3072982323356,820.1146000260487 C128.41667323559523,819.0677249948494 128.52604823885486,818.1718916348182 128.57292324025184,818.1250166334212 C128.61979824164882,818.0781416320242 128.76042324583977,818.1562666343525 128.88542324956506,818.2864749715663 C129.4791732672602,818.8802249892615 131.91667333990335,819.8802250190638 132.96875670459121,819.9583500213921 C134.42188174789771,820.0677250246517 135.26563177304342,819.5677250097506 135.70313178608194,818.3177249724977 C136.1250067986548,817.0520999347791 135.7968817888759,816.505224918481 133.86979839811102,815.2343915472738 C132.04167334362864,814.0312665114179 131.86979833850637,813.7656415035017 131.010423312895,810.937516419217 C130.6822983031161,809.828141386155 130.21354828914627,808.6406413507648 129.97917328216136,808.2812663400546 C128.93229825096205,806.7031412930228 129.60417327098548,805.0573079106398 132.51042335759848,802.1510578240268 C134.44792341534048,800.2135577662848 134.49479841673747,800.1666827648878 135.61979845026508,799.9791827592999 C137.16667349636555,799.7135577513836 138.71354854246601,800.1979327658191 139.54167356714606,801.2187661295757 C140.27604858903214,802.1406411570497 140.27604858903214,802.0156411533244 139.2447985582985,806.921891299542 C138.03125685546547,812.7656414736994 137.39063183637336,818.0364749641158 137.10938182799146,824.5989751596935 C136.87500682100654,829.9010586510412 137.33334016799927,837.1093921991996 138.083340190351,840.0156422858126 C138.083340190351,840.0156422858126 138.31771519733593,840.875017311424 138.31771519733593,840.875017311424 C138.31771519733593,840.875017311424 138.67709020804614,840.2031422914006 138.67709020804614,840.2031422914006 C138.88021521409974,839.8437672806904 140.23959025461227,838.1718922308646 141.7239652988501,836.5000171810389 C145.6770904166624,832.0104337139055 156.90104908449575,821.6979334065691 161.8072992307134,818.0729332985356 C164.69792431686074,815.93230823474 167.99479941511527,814.6354331960902 172.14063287200406,813.994808176998 C173.54688291391358,813.7760581704788 175.3593829679303,813.4010581593029 176.17188299214467,813.119808150921 C177.59375803451985,812.6354331364855 177.68750803731382,812.5416831336915 179.14063308062032,810.9323080857284 C180.21875811275095,809.7604330508038 180.82813313091174,808.8698080242611 181.23438314301893,807.9635579972528 C181.70313315698877,806.9323079665191 182.1406331700273,806.338557948824 183.53125821147114,804.9479329073802 C185.50000827014446,802.9479328477755 186.0468832864426,802.6823078398593 189.25521671539173,802.3541828300804 C191.80209179129452,802.0573078212328 192.7395918192342,801.8073078137822 193.302091835998,801.2448077970184 C194.6770918769762,799.8698077560402 193.48959184158593,796.7135576619767 191.67709178756922,796.9323076684959 C191.67709178756922,796.9323076684959 190.90625843126327,797.0104326708242 190.90625843126327,797.0104326708242 C190.90625843126327,797.0104326708242 191.81771679176018,796.3229326503351 191.81771679176018,796.3229326503351 C192.30209180619568,795.9323076386936 193.5833418443799,794.7708492707461 194.6770918769762,793.7083492390811 C196.34896692680195,792.0677241901867 196.6927169370465,791.6302241771482 197.02084194682539,790.7395991506055 C197.36459195706993,789.8645991245285 197.34896695660427,789.5364741147496 196.98959194589406,788.7083490900695 C196.6145919347182,787.8958490658551 196.39584192819893,787.6458490584046 195.5000085681677,787.0677240411751 C194.21875852998346,786.2239740160294 192.60938348202035,785.8645990053192 187.71875833626837,785.3125156555325 C179.91667477041483,784.4531406299211 177.3072996926494,783.5312656024471 174.91146628791466,780.7916821874678 C172.81771622551605,778.3541821148247 172.42709121387452,775.1823070202954 173.5208412464708,769.3645985135809 C173.86459125671536,767.6145984614268 174.1302162646316,765.5052233985625 174.14584126509726,764.7083483748138 C174.1875079330057,763.2552233315073 174.17188293254003,763.2395983310416 173.1718829027377,762.2395983012393 C170.90625783521682,759.9687649002299 168.50000776350498,760.0000149011612 164.75000765174627,762.3437649710104 C162.51042425166816,763.7343900124542 156.01042405795306,770.3333485424519 153.47917398251593,773.8020986458287 C149.99479887867346,778.536473786924 147.33854879951105,783.1927239256911 144.66667371988297,789.2135574384592 C142.41667365282774,794.3073075902648 140.65104860020801,796.0729326428846 136.40104847354814,797.5104326857254 C135.10417343489826,797.9323076982982 133.7604233948514,798.494807715062 133.41667338460684,798.7448077225126 C133.0729233743623,798.9948077299632 131.4166733250022,800.526057775598 129.75521494215354,802.1198078230955 C127.84896488534287,803.9635578780435 126.505214845296,805.1510579134338 126.0989648331888,805.3073079180904 C125.73958982247859,805.4791829232126 124.3645897815004,805.5729329260066 123.03646474191919,805.557307925541 C121.13021468510851,805.5260579246096 120.42708966415375,805.6354329278693 119.5208396371454,806.0729329409078 C118.0677145938389,806.8073079627939 116.63021455099806,808.3073080074973 115.28646451095119,810.4635580717586 C114.66146449232474,811.4635581015609 113.69271446345374,812.7448081397451 112.97396444203332,813.4635581611656 C111.87500607594848,814.5573081937619 111.4218810624443,814.8541832026094 109.34375600051135,815.7760582300834 C106.68750592134893,816.9635582654737 105.84375589620322,817.7448082887568 105.95313089946285,818.8541833218187 C106.07813090318814,820.0781416916288 107.70313095161691,821.1406417232938 109.42708933632821,821.1406417232938 C110.53646436939016,821.1250167228281 111.83333940804005,820.6406417083926 114.09896447556093,819.3125166688114 C115.0833395048976,818.7656416525133 115.9270895300433,818.2968916385435 116.00521453237161,818.3125166390091 C116.38021454354748,818.3125166390091 115.0833395048976,821.0468917204998 113.80208946671337,822.8906417754479 C112.02083941362798,825.4843918527476 111.53646439919248,826.6562668876722 111.84896440850571,827.6302252500318 C112.19271441875026,828.7239752826281 113.16146444762126,829.5989753087051 114.13021447649226,829.6614753105678 C114.13021447649226,829.6614753105678 114.13021447649226,829.6614753105678 114.13021447649226,829.6614753105678 ZM148.0208404865116,813.4427248272114 C150.34896555589512,809.8333497196436 156.0052157244645,811.3958497662097 156.0833407267928,815.6666832268238 C156.09896572725847,816.3385582468472 155.98959072399884,816.5416832529008 155.48959070909768,816.8541832622141 C153.67709065508097,818.010433296673 151.22396558197215,818.0260582971387 148.56771550280973,816.9270999310538 C148.56771550280973,816.9270999310538 147.3333404660225,816.411474915687 147.3333404660225,816.411474915687 C147.3333404660225,816.411474915687 147.39584046788514,815.348974884022 147.39584046788514,815.348974884022 C147.42709046881646,814.7239748653956 147.6927154767327,813.9270998416469 148.0208404865116,813.4427248272114 C148.0208404865116,813.4427248272114 148.0208404865116,813.4427248272114 148.0208404865116,813.4427248272114 ZM141.8593819695525,804.9062662394717 C144.27604870824143,795.1666826158762 149.35417385958135,783.7083489410579 154.43229901092127,776.4739737254567 C158.19792412314564,771.1458485666662 166.20313269505277,763.6770983440802 168.96875777747482,762.9739733231254 C170.1093828114681,762.6770983142778 171.60938285617158,763.6145983422175 171.7968828617595,764.7708483766764 C171.85938286362216,765.0833483859897 171.6406328571029,766.7395984353498 171.32813284778967,768.4583484865725 C170.6614661612548,772.0052235922776 170.4583411552012,774.3073069942184 170.63021616032347,776.4166820570827 C170.9427161696367,780.322932173498 172.81771622551605,783.3281405963935 176.15104965819046,785.2187656527385 C178.86979973921552,786.7500156983733 181.22917480953038,787.2656407137401 187.35938332555816,787.6770990593359 C191.9062584610656,787.9739740681835 193.42188350623474,788.3020990779623 194.06250852532685,789.1302241026424 C194.70313354441896,789.9270991263911 194.2812585318461,790.7239741501398 192.00000846385956,792.9427242162637 C188.01563334511593,796.8645993331447 179.12500808015466,803.2291828561574 164.01042429637164,812.9948081471957 C162.13542424049228,814.2135581835173 162.04167423769832,814.2448081844486 161.02604920743033,814.041683178395 C160.05729917855933,813.8541831728071 159.9947991766967,813.7916831709445 160.11979918042198,813.3854331588373 C160.7916742004454,810.9583497531712 159.6770908338949,807.5052246502601 157.52084076963365,805.3489745859988 C156.14584072865546,803.9739745450206 153.41146564716473,802.7031411738135 151.26563224988058,802.4375161658973 C147.85938214836642,802.03126615379 143.7500070258975,803.9218912101351 142.26563198165968,806.6250162906945 C141.87500697001815,807.3281413116492 141.48438195837662,807.5625163186342 141.39063195558265,807.1875163074583 C141.35938195465133,807.062516303733 141.57813196117058,806.0312662729993 141.8593819695525,804.9062662394717 C141.8593819695525,804.9062662394717 141.8593819695525,804.9062662394717 141.8593819695525,804.9062662394717 ZM172.71875788923353,810.6979330787435 C172.84375789295882,810.4166830703616 179.96875810530037,805.3541829194874 180.2343831132166,805.3385579190217 C180.5156331215985,805.3385579190217 178.64063306571916,808.7135580196045 178.0156330470927,809.338558038231 C177.07813301915303,810.2760580661707 175.3125079665333,811.0729330899194 173.92188292508945,811.2135580941103 C172.78125789109617,811.32293309737 172.50000788271427,811.1979330936447 172.71875788923353,810.6979330787435 C172.71875788923353,810.6979330787435 172.71875788923353,810.6979330787435 172.71875788923353,810.6979330787435 Z" fill="#000000"/>
									</g>
								</g>
							</g>
						</g>
					</g>
					<g>
						<g>
							<g>
								<g>
									<path d="M202.38563031889498,764.4511311557144 C202.38563031889498,764.4511311557144 189.5314632691443,751.5969641059637 189.5314632691443,751.5969641059637 C189.5314632691443,751.5969641059637 194.82313009351492,746.3052972815931 194.82313009351492,746.3052972815931 C197.06271412937593,744.0709222150035 199.33354625881958,742.909463847056 201.63563029654324,742.8261305112392 C203.95333838105822,742.7323805084452 206.1460477334137,743.7167555377819 208.2189638260752,745.7844639327377 C210.28667158524814,747.8573793896163 211.2710478861506,750.0448819979405 211.17729724757373,752.3469641283154 C211.07833827550832,754.6542558637448 209.91167157407227,756.9250899005372 207.6772971432656,759.1594643313438 C207.6772971432656,759.1594643313438 202.38563031889498,764.4511311557144 202.38563031889498,764.4511311557144 ZM202.92729700170457,758.9511309918016 C202.92729700170457,758.9511309918016 205.198130402714,756.6802975907922 205.198130402714,756.6802975907922 C206.4325051216098,755.4459231897879 207.04187982187915,754.1594641823322 207.03146379068494,752.8261308092624 C207.03146379068494,751.4823794976497 206.39083845370138,750.1698820016658 205.11479706689715,748.8886306919158 C203.82313036173582,747.5969639867544 202.50021301986027,746.9459223006852 201.1564636155963,746.9302973002195 C199.81271421133232,746.9198819048082 198.521047506171,747.5292556514032 197.2814635001123,748.7636306881905 C197.2814635001123,748.7636306881905 195.01063009910285,751.0344640891999 195.01063009910285,751.0344640891999 C195.01063009910285,751.0344640891999 202.92729700170457,758.9511309918016 202.92729700170457,758.9511309918016 Z" fill="#000000"/>
								</g>
							</g>
						</g>
					</g>
					<g>
						<g>
							<g>
								<g>
									<path d="M219.1532695684582,748.2250975538045 C218.2053535093243,749.1730136129383 217.18451887400198,749.6417642626911 216.0907694771886,749.6417642626911 C215.0074361115694,749.6313469599311 213.96576941385865,749.1209309138358 212.96576938405633,748.1209308840334 C212.96576938405633,748.1209308840334 206.61160252802074,741.7667640279979 206.61160252802074,741.7667640279979 C206.61160252802074,741.7667640279979 209.38243594393134,738.9959306120872 209.38243594393134,738.9959306120872 C209.38243594393134,738.9959306120872 214.90326944179833,744.5167641099542 214.90326944179833,744.5167641099542 C215.41368679919592,745.032389761104 215.9553534422691,745.3084308002144 216.5282694902271,745.3500974681228 C217.11160284094512,745.3813468332712 217.6428522209947,745.1521814313408 218.13243620470166,744.6625974476337 C218.7261855866139,744.0688480657216 219.0178522619729,743.386556378721 219.0074362307787,742.6209307201207 C218.99181091242158,741.8605146665748 218.66368685631704,741.15738964562 218.0282695349306,740.516763990745 C218.0282695349306,740.516763990745 212.94493605010211,735.4334305059165 212.94493605010211,735.4334305059165 C212.94493605010211,735.4334305059165 215.71576946601272,732.6625970900059 215.71576946601272,732.6625970900059 C215.71576946601272,732.6625970900059 224.94493640772998,741.8917640317231 224.94493640772998,741.8917640317231 C224.94493640772998,741.8917640317231 222.6116030048579,744.2250974345952 222.6116030048579,744.2250974345952 C222.6116030048579,744.2250974345952 220.50743627548218,742.9542640633881 220.50743627548218,742.9542640633881 C220.50743627548218,742.9542640633881 220.48660294152796,742.9750973973423 220.48660294152796,742.9750973973423 C220.78868691964698,743.9490563954848 220.82514398250106,744.8865564234245 220.59076961129904,745.7875974811614 C220.36681095339978,746.6782228255955 219.88764427245283,747.4907228498099 219.1532695684582,748.2250975538045 C219.1532695684582,748.2250975538045 219.1532695684582,748.2250975538045 219.1532695684582,748.2250975538045 Z" fill="#000000"/>
								</g>
							</g>
						</g>
					</g>
					<g>
						<g>
							<g>
								<g>
									<path d="M226.4049174208194,740.43184405379 C226.4049174208194,740.43184405379 213.00908368825912,727.0360103212297 213.00908368825912,727.0360103212297 C213.00908368825912,727.0360103212297 215.7590837702155,724.2860102392733 215.7590837702155,724.2860102392733 C215.7590837702155,724.2860102392733 223.2382506597787,731.7651771288365 223.2382506597787,731.7651771288365 C223.2382506597787,731.7651771288365 223.25908399373293,731.7443437948823 223.25908399373293,731.7443437948823 C223.25908399373293,731.7443437948823 223.02991732023656,725.3485102709383 223.02991732023656,725.3485102709383 C223.02991732023656,725.3485102709383 226.23825074918568,722.1401768419892 226.23825074918568,722.1401768419892 C226.23825074918568,722.1401768419892 226.30075075104833,729.1193437166512 226.30075075104833,729.1193437166512 C226.30075075104833,729.1193437166512 235.63408436253667,731.2026771120727 235.63408436253667,731.2026771120727 C235.63408436253667,731.2026771120727 232.59241760522127,734.2443438693881 232.59241760522127,734.2443438693881 C232.59241760522127,734.2443438693881 226.1340840794146,732.6193438209593 226.1340840794146,732.6193438209593 C226.1340840794146,732.6193438209593 226.19658408127725,734.723510550335 226.19658408127725,734.723510550335 C226.19658408127725,734.723510550335 229.1549175027758,737.6818439718336 229.1549175027758,737.6818439718336 C229.1549175027758,737.6818439718336 226.4049174208194,740.43184405379 226.4049174208194,740.43184405379 Z" fill="#000000"/>
								</g>
							</g>
						</g>
					</g>
					<g>
						<g>
							<g>
								<g>
									<path d="M240.9016725514084,726.6850584279746 C239.81833918578923,727.7683917935938 238.64125518159318,728.5131838003484 237.38083911314607,728.9142251610756 C236.13083907589316,729.3048504906086 234.89125503009805,729.3621424768742 233.6725056692958,729.0808918327093 C232.4381309504,728.7892251573503 231.3287562352295,728.1538091075297 230.33917223662138,727.1642251089215 C229.35479752517617,726.1798507153678 228.7037561569984,725.1121423502143 228.38083884492517,723.9558916799724 C228.06313113790628,722.804850614785 228.06833883561194,721.6433916110545 228.40167217887938,720.4767249096185 C228.73500552214682,719.3100582081825 229.3964641930846,718.2371427811062 230.3808389045298,717.2475581467152 C231.3391722664237,716.2892247848213 232.37563094853735,715.6538093707835 233.48500566370785,715.3308914229274 C234.5943806967698,715.0131830801256 235.69854707845175,715.0079734750713 236.79750576242805,715.3100580889732 C237.90688047759855,715.6017247643322 238.9329218569522,716.2215164494701 239.88083918765187,717.1642248108983 C240.0475058592856,717.330891482532 240.2141725309193,717.51839148812 240.38083920255303,717.7267248276621 C240.54750587418675,717.9350581672043 240.69333921186626,718.1329735682035 240.81833921559155,718.3100581783801 C240.81833921559155,718.3100581783801 233.985005678609,725.1433917153627 233.985005678609,725.1433917153627 C234.71938063095635,725.7163077633206 235.53708969398093,725.9506840418715 236.4433390852064,725.851725069806 C237.36000577919185,725.7423507023293 238.19854715295756,725.3048506892908 238.9641724936664,724.5392250306904 C239.54750584438443,723.9558916799724 239.9693802211744,723.3048506296861 240.23500586487353,722.5808916389942 C240.51104690398398,721.8465172528911 240.5995885732894,721.1538095346963 240.50583920627832,720.4975582435727 C240.50583920627832,720.4975582435727 243.27667262218893,720.143391566351 243.27667262218893,720.143391566351 C243.51104699339095,721.1329736576105 243.42250595986843,722.221517264067 243.00583928078413,723.4142249971628 C242.59958863289404,724.5965173348475 241.90167258121073,725.6850583981723 240.9016725514084,726.6850584279746 C240.9016725514084,726.6850584279746 240.9016725514084,726.6850584279746 240.9016725514084,726.6850584279746 ZM232.36000563018024,723.5600583348423 C232.36000563018024,723.5600583348423 236.52667242102325,719.3933915439993 236.52667242102325,719.3933915439993 C235.7870897014315,718.7683915253729 235.0527137258711,718.4454761206483 234.31833902187645,718.4142248481512 C233.58396431788182,718.3881831807084 232.93292167813826,718.6590165221132 232.36000563018024,719.2267248723656 C231.77667227946222,719.8100582230836 231.4954229068632,720.4975582435727 231.50583893805742,721.2892249338329 C231.52146425641453,722.080891624093 231.80792164461064,722.841307677639 232.36000563018024,723.5600583348423 C232.36000563018024,723.5600583348423 232.36000563018024,723.5600583348423 232.36000563018024,723.5600583348423 Z" fill="#000000"/>
								</g>
							</g>
						</g>
					</g>
					<g>
						<g>
							<g/>
						</g>
					</g>
					<g>
						<g>
							<g>
								<g>
									<path d="M250.29230756498873,716.5443928744644 C250.29230756498873,716.5443928744644 237.43814051523805,703.6902258247137 237.43814051523805,703.6902258247137 C237.43814051523805,703.6902258247137 240.5423072744161,700.5860590655357 240.5423072744161,700.5860590655357 C240.5423072744161,700.5860590655357 253.39647432416677,713.4402261152864 253.39647432416677,713.4402261152864 C253.39647432416677,713.4402261152864 250.29230756498873,716.5443928744644 250.29230756498873,716.5443928744644 Z" fill="#000000"/>
								</g>
							</g>
						</g>
					</g>
					<g>
						<g>
							<g>
								<g>
									<path d="M251.63352958112955,696.1615188829601 C252.58144691182923,695.2188105215319 253.60227900401998,694.7552675694848 254.69602967239916,694.7656855080277 C255.78978034077835,694.7813105084933 256.8418630696833,695.286518856883 257.84186309948564,696.2865188866854 C257.84186309948564,696.2865188866854 264.1960299555212,702.640685742721 264.1960299555212,702.640685742721 C264.1960299555212,702.640685742721 261.44602987356484,705.3906858246773 261.44602987356484,705.3906858246773 C261.44602987356484,705.3906858246773 255.92519637569785,699.8698523268104 255.92519637569785,699.8698523268104 C255.39394572408247,699.3438106444664 254.84707102567577,699.0729773030616 254.27936299331486,699.057352302596 C253.69602964259684,699.0313106351532 253.16478026254725,699.2604773086496 252.6751962788403,699.7448523230851 C252.09186292812228,700.3281856738031 251.80019625276327,701.0052677557493 251.80019625276327,701.7656857166439 C251.80019625276327,702.5313113752443 252.1231135648365,703.234436396199 252.75852961465716,703.8698524460196 C252.75852961465716,703.8698524460196 257.86269643343985,708.9740192648023 257.86269643343985,708.9740192648023 C257.86269643343985,708.9740192648023 255.11269635148346,711.7240193467587 255.11269635148346,711.7240193467587 C255.11269635148346,711.7240193467587 245.8835294097662,702.4948524050415 245.8835294097662,702.4948524050415 C245.8835294097662,702.4948524050415 248.19602947868407,700.1823523361236 248.19602947868407,700.1823523361236 C248.19602947868407,700.1823523361236 250.27936287410557,701.4323523733765 250.27936287410557,701.4323523733765 C250.27936287410557,701.4323523733765 250.3001962080598,701.4115190394223 250.3001962080598,701.4115190394223 C250.0241548510579,700.4427702821171 249.99811350150657,699.5104773161002 250.21686287224293,698.6198522895575 C250.42519621178508,697.7188105960377 250.89915487713492,696.9011035099005 251.63352958112955,696.1615188829601 C251.63352958112955,696.1615188829601 251.63352958112955,696.1615188829601 251.63352958112955,696.1615188829601 Z" fill="#000000"/>
								</g>
							</g>
						</g>
					</g>
					<g>
						<g>
							<g>
								<g>
									<path d="M269.6587932743132,697.7196043655276 C268.8515012656959,698.5268963741449 267.93483457171044,699.0321044046432 266.9087931923568,699.2404377441853 C265.8775425258403,699.4487710837275 264.8358764639124,699.3654377479106 263.76295976527035,698.9904377367347 C262.67962639965117,698.6050204227988 261.6483770047004,697.9175216738756 260.6587930060923,696.9279376752675 C259.6744182946471,695.9435632817138 258.9921262897551,694.9175215844687 258.61712627857924,693.8446042500436 C258.24212626740336,692.7768965206731 258.1587929315865,691.7300202179078 258.36712627112865,690.6987708229572 C258.5650435794766,689.6571041252464 259.06504359437776,688.7352290977724 259.86712631583214,687.9279374070466 C261.34108501098433,686.4591886348402 263.09629307873547,686.0737706851214 265.13795980624855,686.7821040395647 C265.13795980624855,686.7821040395647 265.15879314020276,686.7612707056105 265.15879314020276,686.7612707056105 C265.15879314020276,686.7612707056105 259.22129296325147,680.8237705286592 259.22129296325147,680.8237705286592 C259.22129296325147,680.8237705286592 261.97129304520786,678.0737704467028 261.97129304520786,678.0737704467028 C261.97129304520786,678.0737704467028 275.36712677776814,691.4696041792631 275.36712677776814,691.4696041792631 C275.36712677776814,691.4696041792631 273.05462670885026,693.782104248181 273.05462670885026,693.782104248181 C273.05462670885026,693.782104248181 270.8671266436577,692.427937541157 270.8671266436577,692.427937541157 C271.2004599869251,693.4279375709593 271.26295998878777,694.3810632351476 271.0546266492456,695.2821042928845 C270.84629330970347,696.1883536841099 270.37754265995073,697.0008549798902 269.6587932743132,697.7196043655276 C269.6587932743132,697.7196043655276 269.6587932743132,697.7196043655276 269.6587932743132,697.7196043655276 ZM268.30462656728923,694.4071042668074 C268.76295991428196,693.9487709198147 269.054626589641,693.4279375709593 269.17962659336627,692.8446042202413 C269.30462659709156,692.2612708695233 269.27337723194313,691.6779375188053 269.0962932575494,691.0946041680872 C268.91400126755855,690.5112708173692 268.5806679242911,689.980019529971 268.0962932277471,689.4904374536127 C267.37233455494663,688.7716861606265 266.53900119677803,688.3862707540393 265.5962931532413,688.3446040861309 C264.66920911675936,688.2925220228111 263.86191841944435,688.6050194889928 263.17962641455233,689.2821041140705 C262.51295972801745,689.9487708006054 262.2004597187042,690.7560624913312 262.24212638661265,691.6987708527595 C262.2837930545211,692.6466869118933 262.66920909689117,693.4800202700619 263.3879597540945,694.1987709272653 C264.1275424736862,694.938353646857 264.9556680646104,695.3237709607929 265.8879598286003,695.3654376287013 C266.83066787213704,695.3966869938497 267.63795988075435,695.0737709533423 268.30462656728923,694.4071042668074 C268.30462656728923,694.4071042668074 268.30462656728923,694.4071042668074 268.30462656728923,694.4071042668074 Z" fill="#000000"/>
								</g>
							</g>
						</g>
					</g>
					<g>
						<g>
							<g>
								<g>
									<path d="M280.0697429571301,687.3086546827108 C279.1218268979962,688.2565707418446 278.10099226267386,688.7253213915974 277.00724286586046,688.7253213915974 C275.9239095002413,688.7149040888373 274.8822428025305,688.204488042742 273.8822427727282,687.2044880129397 C273.8822427727282,687.2044880129397 267.5280759166926,680.8503211569041 267.5280759166926,680.8503211569041 C267.5280759166926,680.8503211569041 270.2989093326032,678.0794877409935 270.2989093326032,678.0794877409935 C270.2989093326032,678.0794877409935 275.8197428304702,683.6003212388605 275.8197428304702,683.6003212388605 C276.3301601878678,684.1159468900103 276.87182683094096,684.3919879291207 277.444742878899,684.4336545970291 C278.028076229617,684.4649039621775 278.5593256096666,684.235738560247 279.04890959337354,683.74615457654 C279.64265897528577,683.1524051946278 279.9343256506448,682.4701135076273 279.92390961945057,681.7044878490269 C279.90828430109343,680.944071795481 279.5801602449889,680.2409467745263 278.94474292360246,679.6003211196512 C278.94474292360246,679.6003211196512 273.861409438774,674.5169876348227 273.861409438774,674.5169876348227 C273.861409438774,674.5169876348227 276.6322428546846,671.7461542189121 276.6322428546846,671.7461542189121 C276.6322428546846,671.7461542189121 285.86140979640186,680.9753211606294 285.86140979640186,680.9753211606294 C285.86140979640186,680.9753211606294 283.5280763935298,683.3086545635015 283.5280763935298,683.3086545635015 C283.5280763935298,683.3086545635015 281.42390966415405,682.0378211922944 281.42390966415405,682.0378211922944 C281.42390966415405,682.0378211922944 281.40307633019984,682.0586545262486 281.40307633019984,682.0586545262486 C281.70516030831885,683.0326135243911 281.74161737117294,683.9701135523308 281.5072429999709,684.8711546100676 C281.2832843420716,685.7617799545018 280.8041176611247,686.5742799787162 280.0697429571301,687.3086546827108 C280.0697429571301,687.3086546827108 280.0697429571301,687.3086546827108 280.0697429571301,687.3086546827108 Z" fill="#000000"/>
								</g>
							</g>
						</g>
					</g>
					<g>
						<g>
							<g>
								<g>
									<path d="M291.7797242756933,675.7236733678728 C290.9463909175247,676.5570067260414 290.07139089144766,677.1820067446679 289.1547241974622,677.5986734237522 C288.23805750347674,678.0153401028365 287.3422241434455,678.1924240772303 286.46722411736846,678.1195067726076 C285.5922240912914,678.0517987551478 284.79014136983704,677.6924240623291 284.0505573786795,677.0361734069884 C284.0505573786795,677.0361734069884 286.17555744200945,674.3695066608489 286.17555744200945,674.3695066608489 C286.71722412481904,674.8278400078416 287.34743215904257,674.9892986638782 288.071390831843,674.8486733417958 C288.79014148904633,674.7132560353105 289.4672242067754,674.3278399929404 290.0922242254019,673.702839974314 C290.60264027149725,673.1924239282187 290.9359736147647,672.6507572454091 291.0922242552042,672.0778399258852 C291.2432656084808,671.5101322114158 291.17555759102106,671.0778398960829 290.88389091566205,670.7861732207239 C290.59222424030304,670.4945065453649 290.20680819793296,670.411173209548 289.7380575481802,670.5361732132733 C289.2797242011875,670.6507571858044 288.67555751651525,670.9840905290719 287.9255574941635,671.5361732430756 C287.9255574941635,671.5361732430756 286.32139077968895,672.6820066105574 286.32139077968895,672.6820066105574 C285.1286827287016,673.5465893338744 284.10264007778216,674.0049226808671 283.2380573544651,674.0570066515356 C282.3630573283881,674.0986733194441 281.5505573041737,673.7445066422224 280.80055728182197,672.9945066198707 C279.85784955617663,672.0517988942254 279.48284954500076,670.9424238611634 279.67555724829435,669.6611731871963 C279.8734745566423,668.3851314825006 280.5609733055656,667.1559647792019 281.73805730976164,665.9736730773002 C282.4776400293534,665.2392980554141 283.25368267282226,664.6976313726045 284.07139071263373,664.3486730288714 C284.87868272125104,663.9892980181612 285.6703494115112,663.827839680016 286.44639078341424,663.8695063479245 C287.2224321553173,663.9111730158329 287.9151414629693,664.1715884186948 288.52972417883575,664.6403397042304 C288.52972417883575,664.6403397042304 286.5088907852769,667.3278397843242 286.5088907852769,667.3278397843242 C286.0818081147348,666.9840910456454 285.5818080600972,666.8590910419201 285.0088907405734,666.9528397731483 C284.4411827082125,667.0517981094308 283.91514134376,667.3434647847898 283.42555736005306,667.8278397992253 C282.99847464977455,668.2601314787753 282.7328493239669,668.718464825768 282.6338906697929,669.2028398402035 C282.5401413027818,669.6924238239105 282.6234746385987,670.0778398662806 282.88389067724347,670.3695065416396 C283.12347465349984,670.609090517896 283.4463906940073,670.6820065509528 283.8630573730916,670.5986732151359 C284.2693067494159,670.504922576559 284.77972406707704,670.2236732039601 285.4047240857035,669.7653398569673 C285.4047240857035,669.7653398569673 287.00889080017805,668.6195064894855 287.00889080017805,668.6195064894855 C288.38389084115624,667.6611731275916 289.5505575425923,667.1403397787362 290.5088909044862,667.0570064429194 C291.4776402975743,666.9632551685596 292.3526403236513,667.3017981168814 293.1338909827173,668.0778398066759 C293.76930703253794,668.718464825768 294.1338910125196,669.4632552430654 294.21722434833646,670.3070065397769 C294.3005576841533,671.1559655341941 294.1338910125196,672.0517988942254 293.7172243334353,672.9945066198707 C293.3109736855452,673.9267989501047 292.66514160453033,674.8382560390357 291.7797242756933,675.7236733678728 C291.7797242756933,675.7236733678728 291.7797242756933,675.7236733678728 291.7797242756933,675.7236733678728 Z" fill="#000000"/>
								</g>
							</g>
						</g>
					</g>
					<g>
						<g>
							<g>
								<g>
									<path d="M301.8569744564593,665.7297565229237 C300.7423904541259,666.8443405252572 299.5548916903014,667.412048557618 298.2944743502885,667.4380899071693 C297.0444743130356,667.4537152255265 295.8986409455538,666.9380898922682 294.856974247843,665.8964231945574 C294.856974247843,665.8964231945574 290.75280745886266,661.7922564055771 290.75280745886266,661.7922564055771 C290.75280745886266,661.7922564055771 289.0028074067086,663.5422564577311 289.0028074067086,663.5422564577311 C289.0028074067086,663.5422564577311 286.9194740112871,661.4589230623096 286.9194740112871,661.4589230623096 C286.9194740112871,661.4589230623096 288.66947406344116,659.7089230101556 288.66947406344116,659.7089230101556 C288.66947406344116,659.7089230101556 286.1069739870727,657.1464229337871 286.1069739870727,657.1464229337871 C286.1069739870727,657.1464229337871 288.27364071831107,653.8130895011127 288.27364071831107,653.8130895011127 C288.27364071831107,653.8130895011127 291.41947414539754,656.9589229281992 291.41947414539754,656.9589229281992 C291.41947414539754,656.9589229281992 295.0861409213394,653.2922561522573 295.0861409213394,653.2922561522573 C295.0861409213394,653.2922561522573 297.1694743167609,655.3755895476788 297.1694743167609,655.3755895476788 C297.1694743167609,655.3755895476788 293.50280754081905,659.0422563236207 293.50280754081905,659.0422563236207 C293.50280754081905,659.0422563236207 297.1694743167609,662.7089230995625 297.1694743167609,662.7089230995625 C297.66947433166206,663.2089231144637 298.20072371171165,663.4693404246743 298.77364103123546,663.4797564558685 C299.34134906359634,663.4953820921171 299.8257237601404,663.3026737530406 300.2319744080305,662.8964231051505 C301.049682447842,662.0787153832305 301.2840571369355,661.0526736859854 300.9403077624738,659.8130896799266 C300.9403077624738,659.8130896799266 303.48197450488806,660.7297563739121 303.48197450488806,660.7297563739121 C303.67468220818165,661.5630897320807 303.61739053980756,662.4380897581577 303.31530783325434,663.3547564521432 C303.00801552164677,664.2714231461287 302.52364114299417,665.0630898363888 301.8569744564593,665.7297565229237 C301.8569744564593,665.7297565229237 301.8569744564593,665.7297565229237 301.8569744564593,665.7297565229237 Z" fill="#000000"/>
								</g>
							</g>
						</g>
					</g>
					<g>
						<g>
							<g>
								<g>
									<path d="M301.45266713015735,646.3423660751432 C302.25995913877466,645.5402814463401 303.2026671823114,645.154866039753 304.2860005479306,645.1965327076614 C305.35370859519264,645.2277839801585 306.45266727916896,645.7069481179739 307.5776673126966,646.6340327505022 C307.5776673126966,646.6340327505022 305.9110005963594,649.5923661720008 305.9110005963594,649.5923661720008 C305.2860005777329,649.0819482185567 304.697459231286,648.7902815431977 304.1401672102511,648.7173661459237 C303.5880844962473,648.6496578105725 303.10891654373455,648.8163244822063 302.70266716741025,649.2173661608249 C302.1766258029578,649.7486149050916 301.98391651020694,650.373614923718 302.11933381669223,651.0923662167042 C302.25995913877466,651.8163252073962 302.70266716741025,652.5506995934993 303.452667189762,653.300699615851 C303.452667189762,653.300699615851 308.49433400668204,658.3423664327711 308.49433400668204,658.3423664327711 C308.49433400668204,658.3423664327711 305.74433392472565,661.0923665147275 305.74433392472565,661.0923665147275 C305.74433392472565,661.0923665147275 296.5151669830084,651.8631995730102 296.5151669830084,651.8631995730102 C296.5151669830084,651.8631995730102 298.70266704820096,649.6756995078176 298.70266704820096,649.6756995078176 C298.70266704820096,649.6756995078176 300.61933377198875,650.7173662055284 300.61933377198875,650.7173662055284 C300.32766709662974,649.8996578478254 300.2547510635729,649.1079911575653 300.3901670984924,648.3423661347479 C300.5307924205748,647.5819481738532 300.88495909779647,646.9152814873183 301.45266713015735,646.3423660751432 C301.45266713015735,646.3423660751432 301.45266713015735,646.3423660751432 301.45266713015735,646.3423660751432 Z" fill="#000000"/>
								</g>
							</g>
						</g>
					</g>
					<g>
						<g>
							<g>
								<g>
									<path d="M305.83017960190773,640.0065507292747 C305.3458052232551,640.4961353487646 304.8093462381512,640.7461353562152 304.22601288743317,640.7565507516265 C303.63226223395515,640.7565507516265 303.095804520417,640.5221757446416 302.6218461729586,640.0482173971832 C302.15309743055457,639.5794686547791 301.9239282139266,639.0482173673809 301.9343461524695,638.4648840166628 C301.9499711529352,637.8815506659448 302.19997116038576,637.3502993785465 302.68434617482126,636.8607173021883 C303.1739282511795,636.3763422877528 303.7051795385778,636.1263422803022 304.2885128892958,636.1107172798365 C304.87184624001384,636.1002993412936 305.4030968916292,636.3294685579216 305.87184626981616,636.7982173003256 C306.34580525305745,637.272175647784 306.5801796242595,637.8086327255393 306.5801796242595,638.4023840148002 C306.56976359306526,638.9857173655182 306.3197635856147,639.5221757148392 305.83017960190773,640.0065507292747 C305.83017960190773,640.0065507292747 305.83017960190773,640.0065507292747 305.83017960190773,640.0065507292747 ZM314.9551798738539,651.8815510831773 C314.9551798738539,651.8815510831773 305.72601293213665,642.6523841414601 305.72601293213665,642.6523841414601 C305.72601293213665,642.6523841414601 308.47601301409304,639.9023840595037 308.47601301409304,639.9023840595037 C308.47601301409304,639.9023840595037 317.7051799558103,649.1315510012209 317.7051799558103,649.1315510012209 C317.7051799558103,649.1315510012209 314.9551798738539,651.8815510831773 314.9551798738539,651.8815510831773 Z" fill="#000000"/>
								</g>
							</g>
						</g>
					</g>
					<g>
						<g>
							<g>
								<g>
									<path d="M324.8246461842209,642.7620847951621 C323.7413128186017,643.8454181607813 322.5642288144057,644.5902101675359 321.30381274595857,644.9912515282631 C320.05381270870566,645.3818768577961 318.8142286629105,645.4391688440617 317.5954793021083,645.1579181998968 C316.3611045832125,644.8662515245378 315.251729868042,644.2308354747172 314.2621458694339,643.241251476109 C313.2777711579887,642.2568770825553 312.6267297898109,641.1891687174018 312.30381247773767,640.0329180471599 C311.9861047707188,638.8818769819725 311.99131246842444,637.720417978242 312.3246458116919,636.553751276806 C312.6579791549593,635.38708457537 313.3194378258971,634.3141691482937 314.3038125373423,633.3245845139027 C315.2621458992362,632.3662511520088 316.2986045813499,631.730835737971 317.40797929652035,631.4079177901149 C318.5173543295823,631.0902094473131 319.6215207112642,631.0849998422588 320.72047939524055,631.3870844561607 C321.829854110411,631.6787511315197 322.8558954897647,632.2985428166576 323.8038128204644,633.2412511780858 C323.9704794920981,633.4079178497195 324.1371461637318,633.5954178553075 324.30381283536553,633.8037511948496 C324.47047950699925,634.0120845343918 324.61631284467876,634.209999935391 324.74131284840405,634.3870845455676 C324.74131284840405,634.3870845455676 317.9079793114215,641.2204180825502 317.9079793114215,641.2204180825502 C318.6423542637688,641.7933341305081 319.46006332679343,642.027710409059 320.3663127180189,641.9287514369935 C321.28297941200435,641.8193770695168 322.12152078577003,641.3818770564783 322.8871461264789,640.6162513978779 C323.47047947719693,640.0329180471599 323.8923538539869,639.3818769968736 324.15797949768603,638.6579180061817 C324.4340205367965,637.9235436200786 324.5225622061019,637.2308359018838 324.4288128390908,636.5745846107602 C324.4288128390908,636.5745846107602 327.1996462550014,636.2204179335386 327.1996462550014,636.2204179335386 C327.43402062620345,637.210000024798 327.34547959268093,638.2985436312545 326.92881291359663,639.4912513643503 C326.52256226570654,640.673543702035 325.82464621402323,641.7620847653598 324.8246461842209,642.7620847951621 C324.8246461842209,642.7620847951621 324.8246461842209,642.7620847951621 324.8246461842209,642.7620847951621 ZM316.28297926299274,639.6370847020298 C316.28297926299274,639.6370847020298 320.44964605383575,635.4704179111868 320.44964605383575,635.4704179111868 C319.710063334244,634.8454178925604 318.97568735868356,634.5225024878358 318.24131265468895,634.4912512153387 C317.50693795069435,634.4652095478959 316.85589531095076,634.7360428893007 316.28297926299274,635.3037512395531 C315.6996459122747,635.8870845902711 315.4183965396757,636.5745846107602 315.4288125708699,637.3662513010204 C315.44443788922706,638.1579179912806 315.73089527742314,638.9183340448265 316.28297926299274,639.6370847020298 C316.28297926299274,639.6370847020298 316.28297926299274,639.6370847020298 316.28297926299274,639.6370847020298 Z" fill="#000000"/>
								</g>
							</g>
						</g>
					</g>
					<g>
						<g>
							<g>
								<g>
									<path d="M334.4358827229589,633.0675454381853 C333.6025493647903,633.9008787963539 332.7275493387133,634.5258788149804 331.8108826447278,634.9425454940647 C330.89421595074236,635.359212173149 329.9983825907111,635.5362961475428 329.1233825646341,635.4633788429201 C328.24838253855705,635.3956708254603 327.44629981710267,635.0362961326416 326.70671582594514,634.3800454773009 C326.70671582594514,634.3800454773009 328.8317158892751,631.7133787311614 328.8317158892751,631.7133787311614 C329.37338257208467,632.1717120781541 330.0035906063082,632.3331707341907 330.72754927910864,632.1925454121083 C331.44629993631196,632.057128105623 332.12338265404105,631.6717120632529 332.7483826726675,631.0467120446265 C333.2587987187629,630.5362959985312 333.5921320620303,629.9946293157216 333.7483827024698,629.4217119961977 C333.8994240557464,628.8540042817283 333.8317160382867,628.4217119663954 333.5400493629277,628.1300452910364 C333.24838268756866,627.8383786156774 332.8629666451986,627.7550452798605 332.39421599544585,627.8800452835858 C331.9358826484531,627.9946292561169 331.3317159637809,628.3279625993844 330.58171594142914,628.8800453133881 C330.58171594142914,628.8800453133881 328.9775492269546,630.0258786808699 328.9775492269546,630.0258786808699 C327.78484117596724,630.8904614041869 326.7587985250478,631.3487947511796 325.89421580173075,631.4008787218481 C325.0192157756537,631.4425453897566 324.20671575143933,631.0883787125349 323.4567157290876,630.3383786901832 C322.51400800344226,629.3956709645379 322.1390079922664,628.2862959314759 322.33171569556,627.0050452575088 C322.5296330039079,625.7290035528131 323.2171317528312,624.4998368495144 324.39421575702727,623.3175451476127 C325.133798476619,622.5831701257266 325.9098411200879,622.041503442917 326.72754915989935,621.6925450991839 C327.53484116851666,621.3331700884737 328.32650785877684,621.1717117503285 329.10254923067987,621.213378418237 C329.8785906025829,621.2550450861454 330.5712999102349,621.5154604890073 331.1858826261014,621.9842117745429 C331.1858826261014,621.9842117745429 329.1650492325425,624.6717118546367 329.1650492325425,624.6717118546367 C328.73796656200045,624.3279631159579 328.23796650736284,624.2029631122326 327.66504918783903,624.2967118434608 C327.09734115547815,624.3956701797433 326.57129979102564,624.6873368551023 326.0817158073187,625.1717118695378 C325.6546330970402,625.6040035490878 325.3890077712325,626.0623368960805 325.2900491170585,626.546711910516 C325.19629975004744,627.036295894223 325.2796330858643,627.421711936593 325.5400491245091,627.7133786119521 C325.77963310076547,627.9529625882085 326.1025491412729,628.0258786212653 326.5192158203572,627.9425452854484 C326.9254651966815,627.8487946468715 327.43588251434267,627.5675452742726 328.0608825329691,627.1092119272798 C328.0608825329691,627.1092119272798 329.6650492474437,625.963378559798 329.6650492474437,625.963378559798 C331.04004928842187,625.0050451979041 332.2067159898579,624.4842118490487 333.1650493517518,624.4008785132319 C334.1337987448399,624.3071272388721 335.00879877091694,624.6456701871939 335.7900494299829,625.4217118769884 C336.42546547980356,626.0623368960805 336.7900494597852,626.8071273133779 336.8733827956021,627.6508786100894 C336.95671613141894,628.4998376045066 336.7900494597852,629.3956709645379 336.3733827807009,630.3383786901832 C335.96713213281083,631.2706710204172 335.32130005179596,632.1821281093482 334.4358827229589,633.0675454381853 C334.4358827229589,633.0675454381853 334.4358827229589,633.0675454381853 334.4358827229589,633.0675454381853 Z" fill="#000000"/>
								</g>
							</g>
						</g>
					</g>
				</g>
			</g>
		</g>
	</g>
</g></g></svg>